<svg id="bell-line" xmlns="http://www.w3.org/2000/svg" width="18.335" height="20" viewBox="0 0 18.335 20">
  <path id="Path_909" data-name="Path 909" d="M21.176,17.709a8.822,8.822,0,0,1-1.544-1.792,7.688,7.688,0,0,1-.831-2.942V9.955A6.625,6.625,0,0,0,12.993,3.38V2.591a.821.821,0,0,0-1.643,0v.8A6.624,6.624,0,0,0,5.61,9.955v3.021a7.688,7.688,0,0,1-.831,2.942,8.82,8.82,0,0,1-1.52,1.792.61.61,0,0,0-.209.459V19a.613.613,0,0,0,.615.612h17.1A.613.613,0,0,0,21.385,19v-.832A.61.61,0,0,0,21.176,17.709ZM4.33,18.388a9.9,9.9,0,0,0,1.5-1.835,8.669,8.669,0,0,0,1.015-3.578V9.955A5.338,5.338,0,0,1,9.48,5.175a5.406,5.406,0,0,1,5.482,0A5.338,5.338,0,0,1,17.6,9.955v3.021a8.669,8.669,0,0,0,1.015,3.578,9.9,9.9,0,0,0,1.5,1.835Z" transform="translate(-3.05 -1.775)" fill="#009e61"/>
  <path id="Path_910" data-name="Path 910" d="M17.056,33.477A1.73,1.73,0,0,0,18.727,32H15.32a1.73,1.73,0,0,0,1.736,1.477Z" transform="translate(-7.856 -13.477)" fill="#009e61"/>
</svg>
