<svg xmlns="http://www.w3.org/2000/svg" width="19.091" height="20" viewBox="0 0 19.091 20">
  <g id="Group_664" data-name="Group 664" transform="translate(-0.153 -0.025)">
    <g id="Group_328" data-name="Group 328" transform="translate(0.153 0.025)">
      <path id="Union_2" data-name="Union 2" d="M6.227,8.354a1.019,1.019,0,0,1,.934-1.067A1.019,1.019,0,0,1,8.1,8.354a1.023,1.023,0,0,1-.934,1.093A1.023,1.023,0,0,1,6.227,8.354Zm-3.114,0a1.019,1.019,0,0,1,.934-1.067,1.019,1.019,0,0,1,.934,1.067,1.023,1.023,0,0,1-.934,1.093A1.023,1.023,0,0,1,3.114,8.354ZM0,8.354A1.019,1.019,0,0,1,.934,7.288a1.019,1.019,0,0,1,.934,1.067A1.023,1.023,0,0,1,.935,9.447,1.023,1.023,0,0,1,0,8.354ZM9.341,4.711a1.019,1.019,0,0,1,.934-1.067,1.019,1.019,0,0,1,.934,1.067A1.023,1.023,0,0,1,10.275,5.8,1.023,1.023,0,0,1,9.341,4.711Zm-3.114,0a1.019,1.019,0,0,1,.934-1.067A1.019,1.019,0,0,1,8.1,4.711,1.023,1.023,0,0,1,7.162,5.8,1.023,1.023,0,0,1,6.227,4.711Zm-3.114,0a1.019,1.019,0,0,1,.934-1.067,1.019,1.019,0,0,1,.934,1.067A1.023,1.023,0,0,1,4.048,5.8,1.023,1.023,0,0,1,3.114,4.711ZM0,4.711A1.019,1.019,0,0,1,.934,3.644a1.019,1.019,0,0,1,.934,1.067A1.023,1.023,0,0,1,.935,5.8,1.023,1.023,0,0,1,0,4.711ZM9.341,1.067A1.019,1.019,0,0,1,10.275,0a1.019,1.019,0,0,1,.934,1.067,1.023,1.023,0,0,1-.934,1.093A1.023,1.023,0,0,1,9.341,1.067Zm-3.114,0A1.019,1.019,0,0,1,7.161,0,1.019,1.019,0,0,1,8.1,1.067a1.023,1.023,0,0,1-.934,1.093A1.023,1.023,0,0,1,6.227,1.067Z" transform="translate(3.734 7.881)" fill="#009e61"/>
      <path id="Subtraction_3" data-name="Subtraction 3" d="M14.091,19H5a5.006,5.006,0,0,1-5-5V5A5.006,5.006,0,0,1,5,0h9.091a5.006,5.006,0,0,1,5,5v9A5.005,5.005,0,0,1,14.091,19ZM5.193,4.75a4,4,0,0,0-4,4v5.062a4,4,0,0,0,4,4h8.7a4,4,0,0,0,4-4V8.75a4,4,0,0,0-4-4Z" transform="translate(0 1)" fill="#009e61"/>
      <path id="Union_3" data-name="Union 3" d="M9.427,4.168V.832a.832.832,0,0,1,1.664,0V4.168a.832.832,0,0,1-1.664,0ZM0,4.168V.832a.832.832,0,0,1,1.664,0V4.168A.832.832,0,0,1,0,4.168Z" transform="translate(4)" fill="#009e61"/>
    </g>
  </g>
</svg>
