<svg id="credit-card-2-back" xmlns="http://www.w3.org/2000/svg" width="26.667" height="20" viewBox="0 0 26.667 20">
  <path id="Path_911" data-name="Path 911" d="M23.333,6.167h-20A1.667,1.667,0,0,0,1.667,7.833V21.167a1.667,1.667,0,0,0,1.667,1.667h20A1.667,1.667,0,0,0,25,21.167V7.833A1.667,1.667,0,0,0,23.333,6.167ZM3.333,4.5A3.333,3.333,0,0,0,0,7.833V21.167A3.333,3.333,0,0,0,3.333,24.5h20a3.333,3.333,0,0,0,3.333-3.333V7.833A3.333,3.333,0,0,0,23.333,4.5Z" transform="translate(0 -4.5)" fill="#009e61" fill-rule="evenodd"/>
  <path id="Path_912" data-name="Path 912" d="M19.215,11.979a.8.8,0,0,1,.848-.729h3.393a.8.8,0,0,1,.848.729v1.458a.8.8,0,0,1-.848.729H20.064a.8.8,0,0,1-.848-.729ZM2.25,17.08H26V20H2.25Z" transform="translate(-0.792 -5.623)" fill="#009e61"/>
</svg>
