<svg xmlns="http://www.w3.org/2000/svg" width="248" height="15" viewBox="0 0 248 15">
  <g id="Group_661" data-name="Group 661" transform="translate(-63.5 -182)">
    <path id="Line_5" data-name="Line 5" d="M246,1h-6a1,1,0,0,1-1-1,1,1,0,0,1,1-1h6a1,1,0,0,1,1,1A1,1,0,0,1,246,1ZM234,1h-6a1,1,0,0,1-1-1,1,1,0,0,1,1-1h6a1,1,0,0,1,1,1A1,1,0,0,1,234,1ZM222,1h-6a1,1,0,0,1-1-1,1,1,0,0,1,1-1h6a1,1,0,0,1,1,1A1,1,0,0,1,222,1ZM210,1h-6a1,1,0,0,1-1-1,1,1,0,0,1,1-1h6a1,1,0,0,1,1,1A1,1,0,0,1,210,1ZM198,1h-6a1,1,0,0,1-1-1,1,1,0,0,1,1-1h6a1,1,0,0,1,1,1A1,1,0,0,1,198,1ZM186,1h-6a1,1,0,0,1-1-1,1,1,0,0,1,1-1h6a1,1,0,0,1,1,1A1,1,0,0,1,186,1ZM174,1h-6a1,1,0,0,1-1-1,1,1,0,0,1,1-1h6a1,1,0,0,1,1,1A1,1,0,0,1,174,1ZM162,1h-6a1,1,0,0,1-1-1,1,1,0,0,1,1-1h6a1,1,0,0,1,1,1A1,1,0,0,1,162,1ZM150,1h-6a1,1,0,0,1-1-1,1,1,0,0,1,1-1h6a1,1,0,0,1,1,1A1,1,0,0,1,150,1ZM138,1h-6a1,1,0,0,1-1-1,1,1,0,0,1,1-1h6a1,1,0,0,1,1,1A1,1,0,0,1,138,1ZM126,1h-6a1,1,0,0,1-1-1,1,1,0,0,1,1-1h6a1,1,0,0,1,1,1A1,1,0,0,1,126,1ZM114,1h-6a1,1,0,0,1-1-1,1,1,0,0,1,1-1h6a1,1,0,0,1,1,1A1,1,0,0,1,114,1ZM102,1H96a1,1,0,0,1-1-1,1,1,0,0,1,1-1h6a1,1,0,0,1,1,1A1,1,0,0,1,102,1ZM90,1H84a1,1,0,0,1-1-1,1,1,0,0,1,1-1h6a1,1,0,0,1,1,1A1,1,0,0,1,90,1ZM78,1H72a1,1,0,0,1-1-1,1,1,0,0,1,1-1h6a1,1,0,0,1,1,1A1,1,0,0,1,78,1ZM66,1H60a1,1,0,0,1-1-1,1,1,0,0,1,1-1h6a1,1,0,0,1,1,1A1,1,0,0,1,66,1ZM54,1H48a1,1,0,0,1-1-1,1,1,0,0,1,1-1h6a1,1,0,0,1,1,1A1,1,0,0,1,54,1ZM42,1H36a1,1,0,0,1-1-1,1,1,0,0,1,1-1h6a1,1,0,0,1,1,1A1,1,0,0,1,42,1ZM30,1H24a1,1,0,0,1-1-1,1,1,0,0,1,1-1h6a1,1,0,0,1,1,1A1,1,0,0,1,30,1ZM18,1H12a1,1,0,0,1-1-1,1,1,0,0,1,1-1h6a1,1,0,0,1,1,1A1,1,0,0,1,18,1ZM6,1H0A1,1,0,0,1-1,0,1,1,0,0,1,0-1H6A1,1,0,0,1,7,0,1,1,0,0,1,6,1Z" transform="translate(64.5 189.5)" fill="#009e61"/>
    <rect id="Rectangle_356" data-name="Rectangle 356" width="47" height="15" rx="7.5" transform="translate(255 182)" fill="#009e61"/>
    <text id="Date" transform="translate(267 193)" fill="#fff" font-size="10" font-family="Montserrat-Light, Montserrat" font-weight="300"><tspan x="0" y="0">Date</tspan></text>
  </g>
</svg>
