<svg height="16.714" viewBox="0 0 16.714 16.714" width="16.714" xmlns="http://www.w3.org/2000/svg"><path d="m8.357 16.714a8.357 8.357 0 1 1 8.356-8.356 8.366 8.366 0 0 1 -8.356 8.356zm-4.021-12.504a.375.375 0 0 0 -.092.011.373.373 0 0 0 -.27.454l2.438 9.615a.371.371 0 0 0 .361.281.4.4 0 0 0 .092-.011.375.375 0 0 0 .27-.454l-2.435-9.615a.372.372 0 0 0 -.364-.281zm.9.142a.213.213 0 0 0 -.175.071.181.181 0 0 0 -.022.162q.217.8.433 1.6l.008.028c.246.908.5 1.848.752 2.771a.441.441 0 0 0 .4.346c.078.005.156.008.233.008a5.681 5.681 0 0 0 2.735-.96 5.685 5.685 0 0 1 2.734-.959c.077 0 .156 0 .233.008a.4.4 0 0 0 .051 0 .211.211 0 0 0 .173-.07.182.182 0 0 0 .019-.157l-.6-2.2-.01-.055-.583-2.145a.4.4 0 0 0 -.4-.346c-.077-.006-.156-.008-.233-.008a5.676 5.676 0 0 0 -2.736.954h-.007a5.678 5.678 0 0 1 -2.728.955c-.077 0-.156 0-.233-.008a.406.406 0 0 0 -.049 0zm2.942 4.121-.167-.614-.011-.027-.16-.591a13.388 13.388 0 0 0 1.29-.683l.167.616.167.616a13.434 13.434 0 0 1 -1.283.682zm-1.724-.929q-.188-.689-.373-1.379a3.965 3.965 0 0 0 1.39-.3q-.164-.607-.328-1.213a13.287 13.287 0 0 0 1.293-.692l.165.607.165.607a13.353 13.353 0 0 1 -1.294.687l.184.679v.011l.187.69a3.958 3.958 0 0 1 -1.39.3zm4.323-.44-.167-.615-.01-.026-.16-.591a4 4 0 0 1 1.319-.272l.165.61v.006l.167.616a3.992 3.992 0 0 0 -1.315.271zm-1.638-.551q-.187-.686-.372-1.374a11.428 11.428 0 0 1 1.294-.679c.07.257.139.512.209.767l.011.039.155.573a11.923 11.923 0 0 0 -1.3.677zm.921-2.053c-.089-.333-.179-.665-.269-1l-.059-.217a4.02 4.02 0 0 1 1.324-.275q.091.334.181.667l.148.547a4.007 4.007 0 0 0 -1.324.275z" fill="#009e61"/></svg>