<svg height="57" viewBox="0 0 133.303 57" width="133.303" xmlns="http://www.w3.org/2000/svg" xmlns:xlink="http://www.w3.org/1999/xlink"><filter id="a" filterUnits="userSpaceOnUse" height="57" width="120.873" x="0" y="0"><feOffset dy="3"/><feGaussianBlur result="b" stdDeviation="3"/><feFlood flood-opacity=".161"/><feComposite in2="b" operator="in"/><feComposite in="SourceGraphic"/></filter><linearGradient id="b" gradientUnits="objectBoundingBox" x1=".062" x2=".927" y1=".5" y2=".5"><stop offset="0" stop-color="#dc7100"/><stop offset=".116" stop-color="#e89b00"/><stop offset=".44" stop-color="#ffe800"/><stop offset=".54" stop-color="#f1b800"/><stop offset="1" stop-color="#d65e00"/></linearGradient><linearGradient id="c" gradientUnits="objectBoundingBox" x1=".5" x2=".5" y1=".196" y2=".906"><stop offset="0" stop-color="#ffe800"/><stop offset="1" stop-color="#d45900"/></linearGradient><linearGradient id="d" gradientUnits="objectBoundingBox" x1=".359" x2=".688" y1="1.139" y2="-.398"><stop offset="0" stop-color="#d45900"/><stop offset="1" stop-color="#ffe800"/></linearGradient><linearGradient id="e" x1="0" x2="1" xlink:href="#c" y1=".5" y2=".5"/><linearGradient id="f" x1="29.538" x2="29.867" xlink:href="#d" y1="1.139" y2="-.398"/><linearGradient id="g" gradientUnits="objectBoundingBox" x1="31.119" x2="32.119" y1=".5" y2=".5"><stop offset="0" stop-color="#d45900"/><stop offset="1" stop-color="#f2be00"/></linearGradient><g filter="url(#a)"><rect fill="#005333" height="39" rx="5" transform="translate(9 6)" width="102.873"/></g><path d="m161.823 700.36s-.006.028-.018.075a3.1 3.1 0 0 1 .051.558 2.774 2.774 0 1 1 -5.54 0 2.97 2.97 0 0 1 1.171-2.394.108.108 0 0 0 .028-.046s.362-1.735-2.3-6.144-5.04-4.7-5.04-4.7-2.324.289-4.989 4.7-2.277 6.144-2.277 6.144l.041.046a2.976 2.976 0 0 1 1.178 2.394 2.772 2.772 0 1 1 -5.536 0 3.09 3.09 0 0 1 .052-.558c-.012-.047-.018-.075-.018-.075a14.114 14.114 0 0 0 -10.9-3.4l6.936 19.807s4.613.94 15.513.94a96.984 96.984 0 0 0 15.615-.94l6.936-19.807a14.114 14.114 0 0 0 -10.903 3.4z" fill="url(#b)" transform="translate(-39.42 -676.71)"/><g fill="#ffffd9"><path d="m166.043 697.73a14.043 14.043 0 0 0 -4.4 2.63s-.006.028-.018.075a3.111 3.111 0 0 1 .05.558 2.761 2.761 0 1 1 -5.511 0 2.975 2.975 0 0 1 1.165-2.394.108.108 0 0 0 .028-.046s.36-1.735-2.291-6.144-5.014-4.7-5.014-4.7-2.312.289-4.963 4.7-2.266 6.144-2.266 6.144l.041.046a2.981 2.981 0 0 1 1.171 2.394 2.759 2.759 0 1 1 -5.507 0 3.105 3.105 0 0 1 .052-.558c-.012-.047-.018-.075-.018-.075a14 14 0 0 0 -10.843-3.4l6.9 19.807s4.589.94 15.432.94q1.447 0 2.757-.023c7.809-3.243 13.253-10.541 13.253-19.025.005-.309-.004-.62-.018-.929z" opacity=".25" transform="translate(-39.42 -676.71)"/><path d="m214.054 703.114a2.854 2.854 0 0 1 -3.091-4.792.1.1 0 0 0 .029-.045s.373-1.691-2.374-5.988-5.2-4.579-5.2-4.579-2.4.282-5.143 4.579-2.348 5.988-2.348 5.988l.042.045a2.856 2.856 0 1 1 -4.439 1.79c-.012-.046-.018-.073-.018-.073a15.125 15.125 0 0 0 -6.654-3.146 15.645 15.645 0 0 0 15.442 14.807 15.435 15.435 0 0 0 13.754-8.586z" opacity=".25" transform="translate(-91.977 -676.71)"/><path d="m337.028 695.386a21.955 21.955 0 0 0 -1.685-3.1c-2.748-4.3-5.2-4.579-5.2-4.579s-2.4.282-5.143 4.579-2.348 5.988-2.348 5.988l.042.045a2.847 2.847 0 0 1 .7 3.966 7.063 7.063 0 0 0 5.737 3.493c4.18.002 7.599-4.578 7.897-10.392z" opacity=".25" transform="translate(-219.381 -676.71)"/><path d="m323.882 702.947c3.173-.5 6.177-5.52 6.319-8.3a59.921 59.921 0 0 0 -.053-6.216 1.485 1.485 0 0 1 0-.723c-.655.183-2.891 1.057-5.143 4.579-2.748 4.3-2.348 5.988-2.348 5.988l.042.045a2.847 2.847 0 0 1 .7 3.966c.153.231.316.45.483.661z" opacity=".25" transform="translate(-219.263 -676.71)"/></g><path d="m165.369 819.109s-4.707 1.617-15.2 1.617c-10.9 0-15.068-1.535-15.068-1.535l-5.792-17.948c-.191.017-1.394-1.123-1.589-1.1l6.936 20.032s4.613.951 15.513.951a95.934 95.934 0 0 0 15.615-.951l6.936-20.032c-.195-.026-1.208.984-1.4.966z" fill="url(#c)" opacity=".65" transform="translate(-39.42 -780.129)"/><path d="m260.712 816.473a3.857 3.857 0 0 0 1.469-7.423 2.451 2.451 0 0 0 -.03.836l.042.045a2.856 2.856 0 1 1 -4.439 1.79c-.012-.046-.018-.073-.018-.073s-.208-.188-.6-.476a3.854 3.854 0 0 0 3.575 5.3z" fill="url(#d)" transform="translate(-158.196 -788.319)"/><path d="m325.1 692.289c-2.523 3.947-2.4 5.693-2.361 5.952.351.017.839.05 1.255.108-.03-.48.075-2.25 2.376-5.849a12.712 12.712 0 0 1 3.887-4.068v-.723s-2.41.283-5.157 4.58z" fill="url(#e)" transform="translate(-218.783 -676.71)"/><path d="m138.979 802.164a15.039 15.039 0 0 0 -11.235-3.311l1.664.966a15.185 15.185 0 0 1 8.725 3.4c.257-.317.558-.656.863-.985-.011-.043-.017-.07-.017-.07z" fill="#ffe800" transform="translate(-39.439 -778.835)"/><path d="m342.87 689.984c-.022.024-.051.049-.072.071-.059.065-.121.13-.18.2l-.022.023a11.639 11.639 0 0 1 2.027-1.576c.621-.251.2.291-.264.66a28.731 28.731 0 0 0 -3.488 5.456 10.181 10.181 0 0 0 -.731 2.4 15.94 15.94 0 0 1 2.232-4.721c.251-.393.5-.749.742-1.078.2-.279.422-.569.664-.857a8.879 8.879 0 0 1 .761-.785 18.016 18.016 0 0 1 1.735-1.348v-.723s-1.464.175-3.404 2.278z" fill="#fff" transform="translate(-234.802 -676.71)"/><path d="m289.51 861.593a1.018 1.018 0 0 1 -.673-.206 2.835 2.835 0 0 1 -1 .483 1.274 1.274 0 0 1 .232.234c.175.245-.123.687-1.109.916a3.289 3.289 0 0 1 -1.215-.023 3.851 3.851 0 0 0 5.359-3.016 2.046 2.046 0 0 1 -1.594 1.612z" fill="#fff" transform="translate(-184.765 -835.164)"/><path d="m200.114 822.35a5.723 5.723 0 0 0 -.81 1.056c.009.159.144 1.083.144 1.083a3.6 3.6 0 0 1 -.223-.776c-.07-.43-.664-1.076-1.618-1.611s-3.407-1.551-3.407-1.551a19.4 19.4 0 0 1 3.026 1.156c1 .564 1.629 1.224 2.1 1.022s-.469-1.432-.469-1.432a6.276 6.276 0 0 1 1.006.674c.242.255.337.329.251.379z" fill="#fff" transform="translate(-100.565 -798.898)"/><path d="m131.811 799.591a9.23 9.23 0 0 1 -2.607-.493c-.511-.264.106-.476 1.039-.493s2.361.135 2.361.135a12.347 12.347 0 0 0 -4.861-.223l1.636 1.057a17.769 17.769 0 0 1 4.1.722 7.994 7.994 0 0 0 1.593.544 9.994 9.994 0 0 0 -3.261-1.249z" fill="#fff" transform="translate(-39.439 -778.499)"/><path d="m484.715 816.473a3.857 3.857 0 0 1 -1.468-7.423 2.45 2.45 0 0 1 .03.836l-.042.045a2.856 2.856 0 1 0 4.439 1.79c.012-.046.018-.073.018-.073s.209-.188.6-.476a3.854 3.854 0 0 1 -3.575 5.3z" fill="url(#f)" transform="translate(-365.252 -788.319)"/><path d="m421.819 692.289c2.523 3.947 2.412 5.693 2.374 5.952-.352.017-.833.05-1.249.108.031-.48-.1-2.25-2.4-5.849-1.512-2.365-2.706-3.513-3.909-4.068v-.723s2.437.283 5.184 4.58z" fill="url(#g)" transform="translate(-305.994 -676.71)"/><path d="m565.863 802.164a15.04 15.04 0 0 1 11.235-3.311l-1.665.966a15.185 15.185 0 0 0 -8.724 3.4c-.257-.317-.558-.656-.864-.985.012-.043.018-.07.018-.07z" fill="#ffe800" transform="translate(-443.796 -778.835)"/><path d="m482.928 861.593a1.019 1.019 0 0 0 .673-.206 2.836 2.836 0 0 0 1 .483 1.274 1.274 0 0 0 -.232.234c-.175.245.123.687 1.109.916a3.29 3.29 0 0 0 1.222-.02 3.851 3.851 0 0 1 -5.359-3.016 2.046 2.046 0 0 0 1.587 1.609z" fill="#fff" transform="translate(-365.637 -835.164)"/><path d="m576.833 798.516a12.346 12.346 0 0 0 -4.86.223s1.428-.153 2.361-.135 1.339.229.828.493a13.15 13.15 0 0 1 -2.589.616 17.047 17.047 0 0 0 -3.754 1.42s-.236.116-.341.175c-1 .563-1.911 1.1-2.1.871-.329-.388.477-1.281.477-1.281a6.253 6.253 0 0 0 -1.006.674c-.246.255-.343.326-.255.379a5.728 5.728 0 0 1 .81 1.056c-.009.159-.144 1.083-.144 1.083a3.592 3.592 0 0 0 .223-.776c.071-.43.664-1.076 1.618-1.611a34.51 34.51 0 0 1 3.393-1.443 16.922 16.922 0 0 1 3.707-.687z" fill="#fff" transform="translate(-443.532 -778.499)"/><path d="m217.337 1028.085-.453.946s4.549.916 15.3.916a96.788 96.788 0 0 0 15.4-.916l.012-.024-.424-1.006s-4.642 1.558-14.988 1.558c-10.394 0-14.584-1.382-14.847-1.474z" fill="#d45900" transform="translate(-121.431 -988.947)"/><path d="m611.639 818.425s6.023-16.763 6.287-17.119a10.733 10.733 0 0 1 1.293-1.154l-1.636 1.057z" fill="#ffe800" opacity=".48" transform="translate(-485.918 -779.371)"/><path d="m135.224 818.425s-6.023-16.763-6.287-17.119a11.786 11.786 0 0 0 -1.214-1.154l1.638 1.057z" fill="#ffe800" opacity=".48" transform="translate(-39.42 -779.371)"/></svg>