<svg xmlns="http://www.w3.org/2000/svg" xmlns:xlink="http://www.w3.org/1999/xlink" width="375" height="812" viewBox="0 0 375 812"><defs><style>.a{fill:#fff;stroke:#707070;}.b{opacity:0.33;mix-blend-mode:multiply;isolation:isolate;clip-path:url(#a);}.c,.d,.e,.f,.g,.h,.i,.j,.k,.l,.m,.n,.o,.p,.q,.r,.s,.t,.u,.v,.w,.x,.y{fill:none;stroke-miterlimit:10;}.c{stroke:#37ab36;}.d{stroke:#40af3f;stroke-width:1.136px;}.e{stroke:#49b348;stroke-width:1.273px;}.f{stroke:#52b651;stroke-width:1.409px;}.g{stroke:#5bba5b;stroke-width:1.545px;}.h{stroke:#64be64;stroke-width:1.682px;}.i{stroke:#6ec26d;stroke-width:1.818px;}.j{stroke:#77c676;stroke-width:1.955px;}.k{stroke:#80ca7f;stroke-width:2.091px;}.l{stroke:#89cd88;stroke-width:2.227px;}.m{stroke:#92d191;stroke-width:2.364px;}.n{stroke:#9bd59b;stroke-width:2.5px;}.o{stroke:#a4d9a4;stroke-width:2.636px;}.p{stroke:#adddad;stroke-width:2.773px;}.q{stroke:#b6e0b6;stroke-width:2.909px;}.r{stroke:#bfe4bf;stroke-width:3.045px;}.s{stroke:#c8e8c8;stroke-width:3.182px;}.t{stroke:#d2ecd1;stroke-width:3.318px;}.u{stroke:#dbf0da;stroke-width:3.455px;}.v{stroke:#e4f4e4;stroke-width:3.591px;}.w{stroke:#edf7ed;stroke-width:3.727px;}.x{stroke:#f6fbf6;stroke-width:3.864px;}.y{stroke:#fff;stroke-width:4px;}</style><clipPath id="a"><rect class="a" width="375" height="812" transform="translate(-528 795)"/></clipPath></defs><g class="b" transform="translate(528 -795)"><g transform="translate(4037.169 -377.223)"><path class="c" d="M-4083.375,2038.779c-5.577-8.1-36.241-32.341-45.06-41.249-34.946-30.455-18.44-107.576-18.44-107.576,49.274-7.062,63.5-22.451,63.5-22.451s14.225,15.388,63.5,22.451c0,0,16.506,77.121-18.441,107.576C-4047.135,2006.438-4077.8,2030.674-4083.375,2038.779Z" transform="translate(-294.414 -374.105)"/><path class="d" d="M-4096.756,1830.4s17.563,19,78.4,27.719c0,0,20.38,95.221-22.769,132.824-10.889,11-48.75,40.922-55.635,50.93-6.886-10.008-44.746-39.932-55.635-50.93-43.149-37.6-22.769-132.824-22.769-132.824C-4114.323,1849.4-4096.756,1830.4-4096.756,1830.4Z" transform="translate(-281.032 -357.1)"/><path class="e" d="M-4110.139,1793.3s20.9,22.612,93.305,32.988c0,0,24.254,113.322-27.1,158.072-12.959,13.089-58.017,48.7-66.211,60.611-8.194-11.91-53.252-47.522-66.211-60.611-51.351-44.75-27.1-158.072-27.1-158.072C-4131.045,1815.907-4110.139,1793.3-4110.139,1793.3Z" transform="translate(-267.649 -340.096)"/><path class="f" d="M-4123.521,1756.192s24.24,26.223,108.208,38.257c0,0,28.128,131.422-31.424,183.32-15.029,15.18-67.283,56.48-76.786,70.292-9.5-13.812-61.757-55.112-76.787-70.292-59.552-51.9-31.424-183.32-31.424-183.32C-4147.766,1782.415-4123.521,1756.192-4123.521,1756.192Z" transform="translate(-254.267 -323.091)"/><path class="g" d="M-4136.9,1719.089s27.579,29.834,123.11,43.526c0,0,32,149.522-35.752,208.568-17.1,17.271-76.55,64.259-87.362,79.973-10.812-15.715-70.263-62.7-87.362-79.973-67.753-59.046-35.752-208.568-35.752-208.568C-4164.487,1748.923-4136.9,1719.089-4136.9,1719.089Z" transform="translate(-240.884 -306.086)"/><path class="h" d="M-4150.285,1681.985s30.917,33.446,138.014,48.8c0,0,35.876,167.622-40.08,233.815-19.168,19.361-85.816,72.037-97.937,89.654-12.12-17.617-78.769-70.293-97.937-89.654-75.956-66.194-40.08-233.815-40.08-233.815C-4181.209,1715.431-4150.285,1681.985-4150.285,1681.985Z" transform="translate(-227.502 -289.081)"/><path class="i" d="M-4163.666,1644.881s34.255,37.057,152.917,54.064c0,0,39.75,185.721-44.408,259.063-21.238,21.452-95.083,79.816-108.512,99.335-13.429-19.519-87.274-77.883-108.512-99.335-84.158-73.342-44.408-259.063-44.408-259.063C-4197.93,1681.938-4163.666,1644.881-4163.666,1644.881Z" transform="translate(-214.119 -272.076)"/><path class="j" d="M-4177.048,1607.778s37.594,40.669,167.819,59.333c0,0,43.624,203.821-48.736,284.311-23.309,23.542-104.35,87.595-119.088,109.016-14.738-21.421-95.78-85.474-119.088-109.016-92.359-80.49-48.735-284.311-48.735-284.311C-4214.651,1648.447-4177.048,1607.778-4177.048,1607.778Z" transform="translate(-200.737 -255.072)"/><path class="k" d="M-4190.431,1570.674s40.933,44.28,182.722,64.6c0,0,47.5,221.922-53.063,309.559-25.378,25.633-113.617,95.374-129.664,118.7-16.047-23.324-104.285-93.064-129.663-118.7-100.562-87.637-53.064-309.559-53.064-309.559C-4231.373,1614.954-4190.431,1570.674-4190.431,1570.674Z" transform="translate(-187.354 -238.067)"/><path class="l" d="M-4203.812,1533.57s44.271,47.892,197.625,69.871c0,0,51.371,240.022-57.392,334.806-27.448,27.724-122.883,103.152-140.239,128.378-17.356-25.226-112.791-100.654-140.239-128.378-108.762-94.785-57.391-334.806-57.391-334.806C-4248.094,1581.462-4203.812,1533.57-4203.812,1533.57Z" transform="translate(-173.972 -221.062)"/><path class="m" d="M-4217.194,1496.467s47.609,51.5,212.528,75.14c0,0,55.246,258.121-61.72,360.054-29.517,29.814-132.149,110.931-150.814,138.059-18.664-27.128-121.3-108.245-150.814-138.059-116.964-101.932-61.719-360.054-61.719-360.054C-4264.815,1547.97-4217.194,1496.467-4217.194,1496.467Z" transform="translate(-160.59 -204.057)"/><path class="n" d="M-4230.576,1459.363s50.948,55.115,227.431,80.409c0,0,59.119,276.222-66.048,385.3-31.588,31.905-141.417,118.709-161.39,147.74-19.973-29.031-129.8-115.835-161.39-147.74-125.166-109.08-66.047-385.3-66.047-385.3C-4281.536,1514.478-4230.576,1459.363-4230.576,1459.363Z" transform="translate(-147.207 -187.053)"/><path class="o" d="M-4243.959,1422.26s54.287,58.726,242.334,85.678c0,0,62.993,294.322-70.375,410.55-33.658,34-150.683,126.488-171.965,157.421-21.282-30.933-138.308-123.425-171.965-157.421-133.369-116.228-70.375-410.55-70.375-410.55C-4298.258,1480.986-4243.959,1422.26-4243.959,1422.26Z" transform="translate(-133.825 -170.048)"/><path class="p" d="M-4257.341,1385.156s57.625,62.338,257.237,90.947c0,0,66.867,312.422-74.7,435.8-35.728,36.087-159.95,134.267-182.541,167.1-22.591-32.835-146.812-131.016-182.54-167.1-141.571-123.375-74.7-435.8-74.7-435.8C-4314.979,1447.494-4257.341,1385.156-4257.341,1385.156Z" transform="translate(-120.442 -153.043)"/><path class="q" d="M-4270.723,1348.052s60.963,65.95,272.14,96.216c0,0,70.741,330.522-79.031,461.045-37.8,38.177-169.216,142.045-193.116,176.783-23.9-34.737-155.319-138.606-193.116-176.783-149.772-130.523-79.031-461.045-79.031-461.045C-4331.7,1414-4270.723,1348.052-4270.723,1348.052Z" transform="translate(-107.06 -136.038)"/><path class="r" d="M-4284.1,1310.949s64.3,69.561,287.042,101.485c0,0,74.615,348.622-83.359,486.293-39.867,40.268-178.483,149.824-203.691,186.464-25.208-36.64-163.824-146.2-203.691-186.464-157.974-137.671-83.359-486.293-83.359-486.293C-4348.422,1380.51-4284.1,1310.949-4284.1,1310.949Z" transform="translate(-93.677 -119.034)"/><path class="s" d="M-4297.487,1273.845s67.642,73.173,301.946,106.754c0,0,78.489,366.722-87.687,511.541-41.937,42.358-187.75,157.6-214.267,196.145-26.517-38.542-172.33-153.787-214.267-196.145-166.175-144.819-87.687-511.541-87.687-511.541C-4365.143,1347.018-4297.487,1273.845-4297.487,1273.845Z" transform="translate(-80.295 -102.029)"/><path class="t" d="M-4310.869,1236.741s70.979,76.784,316.849,112.023c0,0,82.362,384.822-92.015,536.788-44.007,44.449-197.017,165.382-224.842,205.826-27.826-40.444-180.835-161.377-224.842-205.826-174.378-151.967-92.016-536.788-92.016-536.788C-4381.864,1313.525-4310.869,1236.741-4310.869,1236.741Z" transform="translate(-66.912 -85.024)"/><path class="u" d="M-4324.251,1199.638s74.317,80.4,331.751,117.292c0,0,86.237,402.922-96.343,562.036-46.077,46.54-206.283,173.16-235.418,215.507-29.135-42.346-189.341-168.967-235.417-215.507-182.58-159.114-96.343-562.036-96.343-562.036C-4398.585,1280.034-4324.251,1199.638-4324.251,1199.638Z" transform="translate(-53.53 -68.019)"/><path class="v" d="M-4337.634,1162.534s77.657,84.007,346.655,122.561c0,0,90.111,421.022-100.67,587.284-48.147,48.63-215.55,180.939-245.993,225.188-30.444-44.249-197.846-176.558-245.993-225.188-190.781-166.262-100.671-587.284-100.671-587.284C-4415.307,1246.541-4337.634,1162.534-4337.634,1162.534Z" transform="translate(-40.148 -51.014)"/><path class="w" d="M-4351.016,1125.43s81,87.619,361.558,127.83c0,0,93.984,439.122-105,612.532-50.216,50.721-224.816,188.718-256.568,234.869-31.752-46.151-206.352-184.148-256.569-234.869-198.982-173.41-105-612.532-105-612.532C-4432.029,1213.049-4351.016,1125.43-4351.016,1125.43Z" transform="translate(-26.765 -34.009)"/><path class="x" d="M-4364.4,1088.327s84.333,91.23,376.46,133.1c0,0,97.858,457.222-109.327,637.78-52.286,52.811-234.082,196.5-267.144,244.55-33.061-48.054-214.857-191.739-267.144-244.55-207.185-180.557-109.326-637.78-109.326-637.78C-4448.75,1179.557-4364.4,1088.327-4364.4,1088.327Z" transform="translate(-13.383 -17.005)"/><path class="y" d="M-4377.79,2106.849c-34.37-49.956-223.363-199.328-277.719-254.231-215.386-187.705-113.654-663.027-113.654-663.027,303.692-43.526,391.384-138.368,391.384-138.368s87.671,94.842,391.363,138.368c0,0,101.732,475.322-113.654,663.027C-4154.427,1907.521-4343.419,2056.893-4377.79,2106.849Z"/></g></g></svg>