<svg xmlns="http://www.w3.org/2000/svg" width="17.575" height="13.006" viewBox="0 0 17.575 13.006">
  <g id="loss" transform="translate(0 -0.971)">
    <path id="Path_1046" data-name="Path 1046" d="M1.9,2.879a6.5,6.5,0,0,1,8.817-.351q.2.167.38.351a6.5,6.5,0,1,1-9.2,9.2q-.185-.185-.351-.38A6.5,6.5,0,0,1,1.9,2.879Z" transform="translate(0 -0.003)" fill="#f4b74a"/>
    <path id="Path_1047" data-name="Path 1047" d="M16.207,25.764l8.583-8.583a6.46,6.46,0,0,1,1.583,1L17.2,27.346A6.455,6.455,0,0,1,16.207,25.764Z" transform="translate(-15.651 -15.654)" fill="#f9c662"/>
    <path id="Path_1048" data-name="Path 1048" d="M37.153,43.356A5.228,5.228,0,1,1,39.067,47.4,5.228,5.228,0,0,1,37.153,43.356Z" transform="translate(-35.878 -35.882)" fill="#ffd488"/>
    <path id="Path_1049" data-name="Path 1049" d="M92.917,101.248l7.357-7.357h0a5.228,5.228,0,0,1-7.358,7.357Z" transform="translate(-89.727 -89.73)" fill="#f9c662"/>
    <path id="Path_1050" data-name="Path 1050" d="M117.7,125.75l7.075-7.075a5.177,5.177,0,0,1,.435,1.095l-6.415,6.415A5.174,5.174,0,0,1,117.7,125.75Z" transform="translate(-113.661 -113.664)" fill="#ffd488"/>
    <g id="Group_636" data-name="Group 636" transform="translate(1.006 1.977)">
      <path id="Path_1051" data-name="Path 1051" d="M139.146,114.446a1.678,1.678,0,0,1-1.788-1.535.27.27,0,0,1,.539,0,1.281,1.281,0,1,0,1.249-1,1.553,1.553,0,1,1,1.788-1.535.27.27,0,1,1-.539,0,1.281,1.281,0,1,0-1.249,1,1.553,1.553,0,1,1,0,3.07Z" transform="translate(-133.649 -106.148)" fill="#e0a33f"/>
      <path id="Path_1052" data-name="Path 1052" d="M181.863,100.711a.27.27,0,0,1-.27-.27V94.368a.27.27,0,1,1,.539,0v6.074A.27.27,0,0,1,181.863,100.711Z" transform="translate(-176.365 -91.907)" fill="#e0a33f"/>
      <path id="Path_1053" data-name="Path 1053" d="M34.8,41.27a5.5,5.5,0,1,1,5.5-5.5A5.507,5.507,0,0,1,34.8,41.27Zm0-10.455a4.958,4.958,0,1,0,3.836,1.816A4.964,4.964,0,0,0,34.8,30.814Z" transform="translate(-29.3 -30.275)" fill="#e0a33f"/>
    </g>
    <path id="Path_1054" data-name="Path 1054" d="M269,14.434l-4.319,4.045-4.319-4.045h1.969V7.914h4.7v6.521Z" transform="translate(-251.422 -5)" fill="#a40303"/>
  </g>
</svg>
