<svg xmlns="http://www.w3.org/2000/svg" width="31" height="31" viewBox="0 0 31 31"><defs><style>.a{fill:#fff;}.b{fill:#005333;}</style></defs><g transform="translate(-36 -160)"><circle class="a" cx="15.5" cy="15.5" r="15.5" transform="translate(36 160)"/><path class="b" d="M15.86,14.838a.432.432,0,0,1-.209.341,1.767,1.767,0,0,1-.643.255q-.434.1-.891.186a10.13,10.13,0,0,1-1.17.132q-.713.046-1.239.07t-1.355.039q-.829.015-1.255.015H6.76L5.506,15.86l-1.355-.039-1.239-.07L1.742,15.62l-.891-.186-.642-.255L0,14.838A3.011,3.011,0,0,1,1.7,12.43a10.579,10.579,0,0,1,4.244-1.386v-.511A4.093,4.093,0,0,1,4.554,9.525,4.89,4.89,0,0,1,3.624,8a8.945,8.945,0,0,1-.5-1.874,14.093,14.093,0,0,1-.155-2.16A3.9,3.9,0,0,1,3.361,2.2,3.262,3.262,0,0,1,4.429.953,5.047,5.047,0,0,1,5.993.24,7.346,7.346,0,0,1,7.93,0,7.391,7.391,0,0,1,9.866.24,5.027,5.027,0,0,1,11.43.953,3.266,3.266,0,0,1,12.5,2.2a3.9,3.9,0,0,1,.387,1.766q0,5.421-2.974,6.6v.48a10.574,10.574,0,0,1,4.244,1.386A3.014,3.014,0,0,1,15.86,14.838Z" transform="translate(44 168)"/></g></svg>