<svg height="31" width="31" xmlns="http://www.w3.org/2000/svg"><circle cx="15.5" cy="15.5" fill="#fff" r="15.5"/><path d="m15.86 14.838a.432.432 0 0 1 -.209.341 1.767 1.767 0 0 1 -.643.255q-.434.1-.891.186a10.13 10.13 0 0 1 -1.17.132q-.713.046-1.239.07t-1.355.039q-.829.015-1.255.015h-2.338l-1.254-.016-1.355-.039-1.239-.07-1.17-.131-.891-.186-.642-.255-.209-.341a3.011 3.011 0 0 1 1.7-2.408 10.579 10.579 0 0 1 4.244-1.386v-.511a4.093 4.093 0 0 1 -1.39-1.008 4.89 4.89 0 0 1 -.93-1.525 8.945 8.945 0 0 1 -.5-1.874 14.093 14.093 0 0 1 -.155-2.16 3.9 3.9 0 0 1 .392-1.766 3.262 3.262 0 0 1 1.068-1.247 5.047 5.047 0 0 1 1.564-.713 7.346 7.346 0 0 1 1.937-.24 7.391 7.391 0 0 1 1.936.24 5.027 5.027 0 0 1 1.564.713 3.266 3.266 0 0 1 1.07 1.247 3.9 3.9 0 0 1 .387 1.766q0 5.421-2.974 6.6v.48a10.574 10.574 0 0 1 4.244 1.386 3.014 3.014 0 0 1 1.703 2.406z" fill="#005333" transform="translate(8 8)"/></svg>