<svg viewBox="0 0 314.32 229.69" xmlns="http://www.w3.org/2000/svg"><path d="m32 117.57s27-17.29 43.77-28.63v-73.75l-38.86 27.16 11.25 36.48-21-29.64-27.16 18.97zm18.5-12c-3.54 2.31-6.86 4.45-9.67 6.27l-12.2-31.41z" fill="#f6891f"/><path d="m36.91 42.35-9.78 6.84 21.03 29.64z" fill="#fff"/><path d="m40.86 111.87c2.81-1.82 6.13-4 9.67-6.27l-21.9-25.17z" fill="#fff"/><path d="m282.28 117.57 32-49.41-27.13-19-21 29.64 11.25-36.45-39.4-27.56v73.77c16.75 11.32 44.28 29.01 44.28 29.01zm3.41-37.14-12.24 31.44c-2.81-1.82-6.12-4-9.66-6.27z" fill="#f6891f"/><path d="m154.85 20.45h2c22.29-.68 32.74-20.45 32.74-20.45-31.58 13.86-67 0-67 0a4.32 4.32 0 0 0 -.83.42c1.89 2.83 13.86 19.46 33.09 20.03z" fill="#f6891f"/><path d="m206 80.83c2.48 0 3.82-3.11 3.82-9.32 0-6-1.3-9.23-3.86-9.23-2.35 0-3.94 3-3.9 9.32s1.47 9.23 3.94 9.23z" fill="#fec00f"/><path d="m75.77 120.86 89.06-58.86-89.06 94.65v11.16l81.1-53-81.1 88.19v13.05h162.23v-6.15c-22.91-20.35-77.24-70.63-77.24-70.63l77.24 43.36v-35.13l-70.45-61.85 70.45 38.95v-110.29l-37.66-11.13c-3.76 8-16.19 28.5-45.15 28.93-28.48.42-41.38-19.88-45.53-28.41l11.78-3.7-45.67 14.31zm130.28-63.4c7.3 0 10.15 6.5 10.15 14 0 8.43-3.4 14.22-10.37 14.22s-10.15-6.33-10.19-14.05c0-7.92 3.36-14.17 10.41-14.17zm-24.27.46h5.29v27.27h-6.17v-21.61h-.08l-5.2 2.48-1.05-4.78z" fill="#fec00f"/><path d="m156.87 20.45c-.68 0-1.36 0-2 0h2.06c22.14-.68 32.59-20.26 32.69-20.45s-10.48 19.77-32.75 20.45z" fill="#fec00f"/><g fill="#fff"><path d="m155.19 32.11c29-.43 41.39-20.91 45.15-28.93l-10.72-3.18c-.1.18-10.55 19.76-32.71 20.44-.7 0-1.38 0-2.06 0-19.23-.57-31.2-17.2-33.11-20-.18-.26-.27-.42-.27-.42l-11.81 3.68c4.15 8.53 17.05 28.83 45.53 28.41z"/><path d="m180.82 63.58h.08v21.61h6.17v-27.27h-5.29l-7.21 3.35 1.05 4.79z"/><path d="m205.83 85.65c7 0 10.37-5.79 10.37-14.22 0-7.47-2.85-14-10.15-14-7.05 0-10.41 6.25-10.41 14.14.04 7.75 3.15 14.08 10.19 14.08zm.17-23.37c2.56 0 3.86 3.19 3.86 9.23 0 6.21-1.34 9.32-3.82 9.32s-4-3-3.94-9.23 1.51-9.32 3.9-9.32z"/><path d="m75.77 167.81v35.2l81.1-88.17z"/><path d="m75.77 120.86v35.79l89.06-94.63z"/><path d="m237.98 147.5v-22.9l-70.43-38.95z"/><path d="m238 209.9v-27.27l-77.24-43.36s54.31 50.28 77.24 70.63z"/></g><path d="m75.77 216.06h162.21v13.63h-162.21z" fill="#f6891f"/><path d="m287.19 49.19-9.79-6.84-11.25 36.48z" fill="#fff"/><path d="m273.45 111.87 12.24-31.44-21.9 25.17c3.54 2.31 6.85 4.45 9.66 6.27z" fill="#fff"/></svg>