<svg viewBox="0 0 315.42 229.69" xmlns="http://www.w3.org/2000/svg"><path d="m23.3 51.87 31 51.28-3.19 2.08-32.24-50.23-5.12 3.58 1-.69 31.25 50.64c-2.8 1.83-5.34 3.47-7.47 4.85 9.32-6 26.63-17.26 38.33-25.18v-73.79z" fill="#0084c8"/><path d="m0 68.16 32 49.41 6.3-4.06-31.3-50.25z" fill="#0084c8"/><path d="m14.75 57.85-1 .69-6.75 4.72 31.33 50.25.21-.13c2.13-1.38 4.67-3 7.47-4.85z" fill="#fff"/><path d="m54.28 103.15-31-51.28-4.41 3.13 32.22 50.27z" fill="#fff"/><path d="m300.68 57.85 1 .69-5.13-3.54-32.22 50.27-3.19-2.08 31-51.28-53-37.08v73.73c11.69 7.9 28.62 18.89 37.79 24.82l-7.47-4.85z" fill="#0084c8"/><path d="m277.09 113.51 6.3 4.06 32-49.41-7-4.9z" fill="#0084c8"/><path d="m127 5.75c5.36 5.9 15.32 14.3 28.88 14.7h2.06a40 40 0 0 0 4-.34c11-1.55 18.78-7.8 23.41-12.93 1.09-1.2 2-2.35 2.75-3.35l.53-.73c.34-.47.63-.89.87-1.27.83-1.14 1.2-1.83 1.2-1.83-31.58 13.86-67 0-67 0a4.85 4.85 0 0 0 -.85.43c.3.44.82 1.19 1.57 2.15s1.58 1.98 2.58 3.17z" fill="#0084c8"/><g fill="#27aae1"><path d="m76.87 132.45h162.21v8.63h-162.21z"/><path d="m239.09 14.31-37.68-11.14c-3.75 8-16.18 28.51-45.15 28.94-28.48.42-41.38-19.88-45.53-28.41l-33.86 10.61v89.06h162.22zm-51 80.51h-6.42v-22.5h-.09l-5.42 2.58-1.09-5 7.51-3.5h5.51zm19.54.48c-7.34 0-10.57-6.6-10.61-14.64 0-8.21 3.49-14.72 10.83-14.72 7.6 0 10.57 6.77 10.57 14.55.01 8.78-3.53 14.81-10.78 14.81z"/><path d="m207.77 71c-2.45 0-4.1 3.1-4.06 9.69s1.53 9.61 4.1 9.61 4-3.23 4-9.69c-.02-6.32-1.37-9.61-4.04-9.61z"/><path d="m76.87 149.72h162.21v71.34h-162.21z"/><path d="m127 5.75c-1.07-1.19-2-2.27-2.65-3.17.73.9 1.65 1.98 2.65 3.17z"/><path d="m162 20.11c11-1.55 18.78-7.8 23.41-12.93-4.61 5.13-12.35 11.38-23.41 12.93z"/><path d="m127 5.75c5.36 5.9 15.32 14.3 28.88 14.7-13.52-.4-23.48-8.8-28.88-14.7z"/><path d="m188.18 3.83c-.74 1-1.66 2.15-2.75 3.35 1.09-1.18 2.01-2.35 2.75-3.35z"/><path d="m189.58 1.83c-.24.38-.53.8-.87 1.27.34-.47.63-.89.87-1.27z"/></g><path d="m76.87 103.37h162.21v29.08h-162.21z" fill="#fff"/><path d="m76.87 141.08h162.21v8.63h-162.21z" fill="#fff"/><path d="m76.87 221.06h162.21v8.63h-162.21z" fill="#fff"/><path d="m156.26 32.11c29-.43 41.4-20.93 45.15-28.94l-10.71-3.17s-.37.69-1.12 1.83c-.24.38-.53.8-.87 1.27l-.53.73c-.74 1-1.66 2.15-2.75 3.35-4.63 5.13-12.37 11.38-23.43 12.93a40 40 0 0 1 -4 .34c-.7 0-1.38 0-2.06 0-13.56-.4-23.52-8.8-28.88-14.7-1.07-1.19-2-2.27-2.65-3.17s-1.29-1.71-1.59-2.15l-.28-.43-11.81 3.7c4.15 8.53 17.05 28.83 45.53 28.41z" fill="#fff"/><path d="m308.42 63.26-6.75-4.72-1-.69-31.27 50.68 7.47 4.85.21.13 31.33-50.25z" fill="#fff"/><path d="m264.33 105.23 32.22-50.23-4.43-3.09-31 51.28z" fill="#fff"/><path d="m175.08 69.92 1.09 4.98 5.42-2.58h.09v22.5h6.42v-28.4h-5.51z" fill="#fff"/><path d="m207.86 65.94c-7.34 0-10.83 6.51-10.83 14.72 0 8 3.27 14.64 10.61 14.64s10.79-6 10.79-14.81c0-7.78-2.97-14.55-10.57-14.55zm-.05 24.33c-2.57 0-4.14-3.1-4.1-9.61s1.61-9.66 4.06-9.66c2.67 0 4 3.32 4 9.61.02 6.39-1.38 9.66-3.96 9.66z" fill="#fff"/></svg>