<svg viewBox="0 0 315.57 229.69" xmlns="http://www.w3.org/2000/svg"><path d="m0 68.16 32 49.41s28.33-18.18 45-29.47v-73.79z" fill="#513313"/><path d="m239.23 20.79v67.77c16.77 11.32 44.3 29 44.3 29l32-49.41-76.3-53.36z" fill="#513313"/><path d="m156.69 20.45h1.43c22.27-.68 32.72-20.45 32.72-20.45-31.58 13.86-67 0-67 0l-.4.17c1.21 1.88 13.35 19.69 33.25 20.28z" fill="#513313"/><g fill="#754c29"><path d="m213.75 69.57c-1.91 0-3.2 2.42-3.17 7.56s1.2 7.5 3.21 7.5 3.1-2.53 3.1-7.57-1.06-7.49-3.14-7.49z"/><path d="m239.23 220.15v-64.25l-141.24 64.25z"/><path d="m239.23 14.31-37.77-11.17c-4.61 10.18-17.58 31.73-44.58 30.6-27.67-1.16-41.32-21.26-45.88-29.87l11.79-3.71a1.52 1.52 0 0 1 -.11-.16l-45.68 14.31v81.8l153.3-84.43z"/><path d="m77.02 198.71 162.21-74.96v-16.79l-162.21 76.48z"/><path d="m77 110.23v61.65l162.23-79.81v-71.28zm121.41-22.06h-5v-17.55h-.07l-4.22 2-.85-3.88 5.85-2.74h4.29zm15.24.37c-5.72 0-8.25-5.14-8.28-11.41s2.73-11.48 8.45-11.48c5.93 0 8.25 5.28 8.25 11.34 0 6.85-2.76 11.55-8.42 11.55z"/><path d="m158.12 20.45c-.48 0-1 0-1.43 0h2.06c21.14-.65 31.62-18.45 32.63-20.29l-.54-.16s-10.45 19.77-32.72 20.45z"/></g><path d="m156.88 33.74c27 1.13 40-20.42 44.58-30.6a1.19 1.19 0 0 1 .08-.16l-10.07-2.98-.09.16c-1 1.81-11.49 19.64-32.63 20.29-.69 0-1.38 0-2.06 0-19.9-.59-32-18.4-33.27-20.28l-.11-.17-.52.16-11.79 3.71c4.56 8.61 18.21 28.71 45.88 29.87z" fill="#ffdb00"/><path d="m188.26 68.75.85 3.88 4.22-2.01h.07v17.55h5.01v-22.15h-4.29z" fill="#fff200"/><path d="m213.82 65.65c-5.72 0-8.45 5.07-8.45 11.48s2.56 11.41 8.28 11.41 8.42-4.7 8.42-11.55c0-6.06-2.32-11.34-8.25-11.34zm0 19c-2 0-3.24-2.42-3.21-7.5s1.26-7.56 3.17-7.56c2.08 0 3.14 2.59 3.14 7.49s-1.12 7.55-3.13 7.55z" fill="#fff200"/><path d="m239.23 20.79v-6-.48l-8.91-2.63-153.3 84.43v14.12z" fill="#ffdb00"/><path d="m77.02 183.44 162.21-76.48v-14.89l-162.21 79.81z" fill="#ffdb00"/><path d="m77.02 220.15h20.97l141.24-64.25v-32.15l-162.21 74.96z" fill="#ffdb00"/><path d="m77.02 220.15v9.54h162.21v-9.54h-141.24z" fill="#513313"/></svg>