<svg viewBox="0 0 315.57 229.69" xmlns="http://www.w3.org/2000/svg"><path d="m0 68.16 32 49.41s28.33-18.18 45-29.47v-73.79z" fill="#4e9f3c"/><path d="m239.23 88.56c16.77 11.32 44.3 29 44.3 29l32-49.41-76.3-53.36z" fill="#4e9f3c"/><path d="m124.73 2.83a52.05 52.05 0 0 0 4.77 5.32h.05a51 51 0 0 0 5.32 4.52c.67.49 1.36 1 2.08 1.44a40.62 40.62 0 0 0 7.49 3.87 35.46 35.46 0 0 0 9.88 2.32h.64c.39 0 .78.05 1.18.06h1.93s1.32-.06 2-.12c.44 0 .86-.08 1.28-.13l.57-.07a36 36 0 0 0 9.83-2.8 38.2 38.2 0 0 0 6.13-3.42 44.61 44.61 0 0 0 12.12-12.46c.54-.85.81-1.36.81-1.36-31.58 13.86-67 0-67 0a4.53 4.53 0 0 0 -.85.43c.29.44.81 1.19 1.56 2.15z" fill="#4e9f3c"/><path d="m239.23 14.31-48.39-14.31 12.16 3.59c-2.89 5.31-6.58 11.91-12.84 17.41v196h49.07zm-37 84.93h-5v-17.54h-.06l-4.23 2-.85-3.89 5.91-2.71h4.29zm15.24.38c-5.72 0-8.24-5.15-8.28-11.42s2.73-11.48 8.45-11.48c5.93 0 8.25 5.28 8.25 11.35.01 6.85-2.75 11.55-8.41 11.55z" fill="#8dc63f"/><path d="m171.76 30.41v186.59h6.13v-188.53a49.56 49.56 0 0 1 -6.13 1.94z" fill="#8dc63f"/><path d="m137 29.23v187.77h7.49v-185.87a55.71 55.71 0 0 1 -7.49-1.9z" fill="#8dc63f"/><path d="m217.58 80.64c-1.91 0-3.2 2.42-3.16 7.56s1.19 7.5 3.2 7.5 3.1-2.52 3.1-7.56-1.06-7.5-3.14-7.5z" fill="#8dc63f"/><path d="m124.73 23.17a47.93 47.93 0 0 1 -16-18.8l13.95-4.37-45.68 14.31v202.69h47.71z" fill="#8dc63f"/><path d="m171.76 17.35a38.2 38.2 0 0 0 6.13-3.42 38.2 38.2 0 0 1 -6.13 3.42z" fill="#8dc63f"/><path d="m154.37 20.35h.64z" fill="#8dc63f"/><path d="m124.53 2.58.2.25z" fill="#8dc63f"/><path d="m137 14.19a40.62 40.62 0 0 0 7.49 3.87 40.62 40.62 0 0 1 -7.49-3.87z" fill="#8dc63f"/><g fill="#fff200"><path d="m192.09 79.82.85 3.88 4.22-2.01h.07v17.55h5.01v-22.14h-4.29z"/><path d="m217.65 76.72c-5.72 0-8.45 5.08-8.45 11.48s2.56 11.42 8.28 11.42 8.42-4.7 8.42-11.55c0-6.07-2.32-11.35-8.25-11.35zm0 19c-2 0-3.24-2.42-3.2-7.5s1.25-7.56 3.16-7.56c2.08 0 3.14 2.59 3.14 7.5s-1.12 7.54-3.13 7.54z"/><path d="m161.36 20.2c-.42.05-.84.1-1.28.13.44-.03.86-.08 1.28-.13z"/><path d="m171.76 17.33a36 36 0 0 1 -9.83 2.8h.23a36.09 36.09 0 0 0 9.6-2.76z"/><path d="m144.49 18a34.84 34.84 0 0 0 9.88 2.29 35.46 35.46 0 0 1 -9.88-2.29z"/><path d="m156.25 32.15a65.87 65.87 0 0 1 -11.76-1v185.85h27.27v-186.59a64.42 64.42 0 0 1 -15.51 1.74z"/><path d="m155 20.39c.35 0 .7.05 1.05.06h.13c-.4 0-.79 0-1.18-.06z"/><path d="m129.55 8.19a51 51 0 0 0 5.32 4.52 51 51 0 0 1 -5.32-4.52z"/><path d="m124.73 2.82a52.36 52.36 0 0 0 4.78 5.31 52.05 52.05 0 0 1 -4.78-5.31z"/><path d="m137 14.19c-.72-.47-1.41-.95-2.08-1.44.67.5 1.36 1 2.08 1.45z"/><path d="m124.73 23.17v193.83h12.27v-187.77a48.26 48.26 0 0 1 -12.27-6.06z"/><path d="m177.89 13.92a44.94 44.94 0 0 0 10.44-10.1l.53-.73c.33-.47.62-.89.87-1.27l.3-.47a44.61 44.61 0 0 1 -12.14 12.57z"/><path d="m177.89 28.47v188.53h12.27v-196a41.23 41.23 0 0 1 -12.27 7.47z"/></g><path d="m124.73 23.17a48.26 48.26 0 0 0 12.27 6.06 55.71 55.71 0 0 0 7.49 1.9 65.87 65.87 0 0 0 11.76 1 64.42 64.42 0 0 0 15.51-1.74 49.56 49.56 0 0 0 6.13-1.94 41.23 41.23 0 0 0 12.27-7.45c6.26-5.51 10-12.11 12.83-17.42l-12.15-3.58s-.27.51-.81 1.36l-.3.47c-.25.38-.54.8-.87 1.27l-.53.73a44.94 44.94 0 0 1 -10.44 10.1 38.2 38.2 0 0 1 -6.13 3.42 36.09 36.09 0 0 1 -9.6 2.76h-.23l-.57.07c-.42.05-.84.1-1.28.13-.64.06-1.29.1-2 .12s-1.29 0-1.93 0h-.13c-.35 0-.7 0-1.05-.06h-.64a34.84 34.84 0 0 1 -9.88-2.29 40.62 40.62 0 0 1 -7.45-3.89c-.72-.47-1.41-.95-2.08-1.45a51 51 0 0 1 -5.32-4.52 52.36 52.36 0 0 1 -4.78-5.31l-.2-.25c-.75-1-1.27-1.71-1.56-2.15-.19-.27-.29-.43-.29-.43l-14.01 4.29a47.93 47.93 0 0 0 15.97 18.8z" fill="#377d2d"/><path d="m177.89 216.97h-6.14-27.26-7.49-12.27-47.71v12.72h47.71 12.27 7.49 27.26 6.14 12.27 49.07v-12.72h-49.07z" fill="#377d2d"/></svg>