<svg viewBox="0 0 315.57 229.69" xmlns="http://www.w3.org/2000/svg"><path d="m77 14.31-77 53.85 32 49.41s28.33-18.18 45-29.47z" fill="#b11116"/><path d="m239.23 73v15.56c16.77 11.32 44.3 29 44.3 29l32-49.41-76.3-53.36z" fill="#b11116"/><path d="m156.1 20.45h2c22.29-.68 32.74-20.45 32.74-20.45-31.58 13.86-67 0-67 0a4.32 4.32 0 0 0 -.83.42c1.89 2.83 13.86 19.46 33.09 20.03z" fill="#b11116"/><g fill="#ed1c24"><path d="m77.02 150.17v67.25h162.21v-66.44l-82.64 13.39z"/><path d="m77.02 104.89v30.68l81.45 14.02 80.76-12.79v-30.26l-82.98 31.82z"/><path d="m212 75.8c2.47 0 3.82-3.11 3.82-9.32 0-6-1.3-9.23-3.86-9.23-2.35 0-3.95 3-3.9 9.32s1.44 9.23 3.94 9.23z"/><path d="m158.12 103.37 81.11-30.37v-58.69l-37.64-11.13c-3.76 8-16.19 28.5-45.15 28.93-28.44.42-41.38-19.88-45.53-28.41l11.78-3.7-45.69 14.31v56zm53.88-50.94c7.3 0 10.15 6.5 10.15 14 0 8.43-3.39 14.22-10.36 14.22s-10.15-6.33-10.19-14.05c.02-7.92 3.4-14.17 10.4-14.17zm-24.26.46h5.29v27.27h-6.17v-21.61h-.09l-5.18 2.45-1.05-4.78z"/><path d="m158.12 20.45c-.68 0-1.36 0-2 0h2.06c22.14-.68 32.59-20.26 32.69-20.45s-10.48 19.77-32.75 20.45z"/></g><path d="m156.44 32.11c29-.43 41.39-20.91 45.15-28.93l-10.72-3.18c-.1.18-10.55 19.76-32.71 20.44-.7 0-1.39 0-2.06 0-19.23-.57-31.2-17.2-33.11-20-.18-.26-.27-.42-.27-.42l-11.81 3.68c4.15 8.53 17.09 28.83 45.53 28.41z" fill="#fff"/><path d="m186.79 58.55h.09v21.61h6.17v-27.27h-5.29l-7.22 3.35 1.05 4.79z" fill="#fff"/><path d="m211.81 80.62c7 0 10.36-5.79 10.36-14.22 0-7.47-2.85-14-10.15-14-7.05 0-10.4 6.25-10.4 14.14.04 7.75 3.14 14.08 10.19 14.08zm.13-23.37c2.56 0 3.86 3.19 3.86 9.23 0 6.21-1.35 9.32-3.82 9.32s-4-3-3.94-9.23 1.55-9.32 3.9-9.32z" fill="#fff"/><path d="m158.12 103.37-81.1-33.02v17.75 16.79l79.23 33.47 82.98-31.82v-17.98-15.56z" fill="#fff"/><path d="m77.02 135.57v14.6l79.57 14.2 82.64-13.39v-14.18l-80.76 12.79z" fill="#fff"/><path d="m77.02 217.42h162.21v12.27h-162.21z" fill="#b11116"/></svg>