<svg viewBox="0 0 315.44 229.69" xmlns="http://www.w3.org/2000/svg"><path d="m16.43 56.67 30.74 51.11-5.55 3.6-32.48-49.61 2.82-2-11.96 8.39 32 49.41s28.19-18.09 44.89-29.39v-73.78z" fill="#483b34"/><path d="m306.3 61.77-32.48 49.61-5.55-3.6 30.73-51.11-59.9-41.88v73.77c16.76 11.32 44.3 29 44.3 29l32-49.41-12-8.36z" fill="#483b34"/><path d="m124.94 3.26c.32.4.68.84 1.07 1.28l.11.12c.39.46.82.93 1.27 1.43l.05.06a49.57 49.57 0 0 0 12.17 9.68 35.86 35.86 0 0 0 16.34 4.62h2.06a40 40 0 0 0 4-.34c11-1.55 18.78-7.8 23.41-12.93 1.09-1.2 2-2.35 2.75-3.35l.53-.73c.34-.47.62-.89.87-1.27.78-1.14 1.14-1.83 1.14-1.83-31.58 13.86-67 0-67 0a4.53 4.53 0 0 0 -.85.43c.3.44.82 1.19 1.57 2.15.14.22.32.42.51.68z" fill="#483b34"/><g fill="#594a42"><path d="m98.14 7.66-21.25 6.65v.09 73.78 131.97h21.25z"/><path d="m211.84 90.27c2.58 0 4-3.23 4-9.69 0-6.29-1.35-9.61-4-9.61h-.05v19.3z"/><path d="m239.11 14.31-27.36-8.09v59.78h.13c7.61 0 10.58 6.77 10.58 14.55 0 8.74-3.52 14.75-10.71 14.8v124.8h27.36z"/><path d="m103.25 220.15h5.11v-215.7l8.52-2.67 5.68-1.78-24.31 7.62 5-1.57z"/><path d="m156.12 33.74a53.25 53.25 0 0 1 -16.52-3.29v189.7h50.21v-125.33h-4.11v-22.5h-.09l-5.41 2.58-1.1-5 7.52-3.5h3.19v-46.68c-7.33 7.85-18.2 14.67-33.69 14.02z"/><path d="m116.88 13.84v206.31h8.06v-198.15a58.57 58.57 0 0 1 -8.06-8.16z"/><path d="m189.6 1.83c-.25.38-.53.8-.87 1.27.34-.47.62-.89.87-1.27z"/><path d="m127.38 6.09.05.06z"/><path d="m188.2 3.83c-.74 1-1.66 2.15-2.75 3.35 1.09-1.18 2.01-2.35 2.75-3.35z"/><path d="m139.6 15.83a35.86 35.86 0 0 0 16.34 4.62 35.86 35.86 0 0 1 -16.34-4.62z"/><path d="m126 4.54.1.12z"/><path d="m162 20.11c11-1.55 18.78-7.8 23.41-12.93-4.59 5.13-12.33 11.38-23.41 12.93z"/><path d="m124.41 2.58c.16.22.34.45.53.68-.19-.26-.37-.46-.53-.68z"/></g><path d="m211.75 90.27v-19.27c-2.42 0-4.06 3.14-4 9.69s1.48 9.51 4 9.58z" fill="#483b34"/><path d="m211.75 95.29h-.09c-7.33 0-10.57-6.6-10.61-14.64s3.45-14.65 10.7-14.65v-59.78l-21.04-6.22 10.07 3a62.53 62.53 0 0 1 -11 16.74v46.7h2.31v28.4h-2.31v125.31h-50.18v-189.7a51.61 51.61 0 0 1 -14.66-8.45v198.2h-8.06v-206.36a61.86 61.86 0 0 1 -6.67-10l6.67-2.09-8.52 2.67v215.7h-5.11v-214.07l-5 1.57h-.13v212.5h-21.23v9.54h162.22v-9.54h-27.36z" fill="#483b34"/><path d="m110.21 3.87a61.86 61.86 0 0 0 6.67 10 58.57 58.57 0 0 0 8.06 8.13 51.61 51.61 0 0 0 14.66 8.5 53.25 53.25 0 0 0 16.52 3.29c15.49.65 26.36-6.17 33.69-14a62.53 62.53 0 0 0 10.97-16.79l-10.07-3s-.36.69-1.11 1.83c-.25.38-.53.8-.87 1.27l-.53.73c-.74 1-1.66 2.15-2.75 3.35-4.63 5.13-12.37 11.38-23.41 12.93a40 40 0 0 1 -4 .34c-.7 0-1.38 0-2.06 0a35.86 35.86 0 0 1 -16.34-4.62 49.57 49.57 0 0 1 -12.17-9.68l-.05-.06c-.45-.5-.88-1-1.27-1.43l-.1-.12c-.39-.44-.75-.88-1.07-1.28-.19-.23-.37-.46-.53-.68-.75-1-1.27-1.71-1.57-2.15l-.32-.43-5.68 1.78z" fill="#fff"/><path d="m179.1 69.92 1.1 4.98 5.42-2.58h.08v22.5h4.11 2.31v-28.4h-2.31-3.19z" fill="#fff"/><path d="m201.05 80.66c0 8 3.28 14.64 10.61 14.64h.09c7.19-.05 10.71-6.06 10.71-14.8 0-7.78-3-14.55-10.58-14.55h-.13c-7.25.05-10.7 6.55-10.7 14.71zm10.7-9.66h.05c2.66 0 4 3.32 4 9.61 0 6.46-1.39 9.69-4 9.69h-.09c-2.52-.07-4.06-3.17-4-9.61s1.62-9.69 4.04-9.69z" fill="#fff"/><path d="m273.82 111.38 32.48-49.61-2.82-2-4.48-3.1-30.74 51.11z" fill="#fff"/></svg>