<svg height="57" viewBox="0 0 132.556 57" width="132.556" xmlns="http://www.w3.org/2000/svg" xmlns:xlink="http://www.w3.org/1999/xlink"><filter id="a" filterUnits="userSpaceOnUse" height="57" width="120" x="0" y="0"><feOffset dy="3"/><feGaussianBlur result="b" stdDeviation="3"/><feFlood flood-opacity=".161"/><feComposite in2="b" operator="in"/><feComposite in="SourceGraphic"/></filter><linearGradient id="b" gradientUnits="objectBoundingBox" x1=".062" x2=".927" y1=".5" y2=".5"><stop offset="0" stop-color="#7c7c7c"/><stop offset=".623" stop-color="#b5c0c9"/><stop offset="1" stop-color="#7c7c7c"/></linearGradient><linearGradient id="c" gradientUnits="objectBoundingBox" x1=".5" x2=".5" y1=".196" y2=".906"><stop offset="0" stop-color="#d6d8db"/><stop offset="1" stop-color="#7c7c7c"/></linearGradient><linearGradient id="d" gradientUnits="objectBoundingBox" x1=".359" x2=".688" y1="1.139" y2="-.398"><stop offset="0" stop-color="#8f939c"/><stop offset="1" stop-color="#d6d8db"/></linearGradient><linearGradient id="e" x1="0" x2="1" xlink:href="#d" y1=".5" y2=".5"/><linearGradient id="f" gradientUnits="objectBoundingBox" x1="-45.309" x2="-44.98" y1="1.139" y2="-.398"><stop offset="0" stop-color="#d6d8db"/><stop offset="1" stop-color="#8f939c"/></linearGradient><linearGradient id="g" gradientUnits="objectBoundingBox" x2="1" y1=".5" y2=".5"><stop offset="0" stop-color="#b5c0c9"/><stop offset="1" stop-color="#8f939c"/></linearGradient><linearGradient id="h" x1=".5" x2=".5" xlink:href="#f" y1="-8.277" y2=".109"/><g filter="url(#a)" transform="translate(0 -.002)"><rect fill="#005333" height="39" rx="5" transform="translate(9 6)" width="102"/></g><path d="m3761.448 673.36s-.006.028-.018.075a3.1 3.1 0 0 1 .051.558 2.774 2.774 0 1 1 -5.54 0 2.968 2.968 0 0 1 1.172-2.394.106.106 0 0 0 .027-.046s.362-1.735-2.3-6.144-5.04-4.7-5.04-4.7-2.324.289-4.989 4.7-2.277 6.144-2.277 6.144l.04.046a2.973 2.973 0 0 1 1.178 2.394 2.772 2.772 0 1 1 -5.535 0 3.1 3.1 0 0 1 .051-.558l-.018-.075a14.109 14.109 0 0 0 -10.9-3.4l6.938 19.807s4.612.94 15.511.94a97.017 97.017 0 0 0 15.615-.94l6.936-19.807a14.116 14.116 0 0 0 -10.902 3.4z" fill="url(#b)" transform="translate(-3639.793 -651.256)"/><path d="m3765.834 670.73a14.13 14.13 0 0 0 -4.415 2.63s-.006.028-.018.075a3.1 3.1 0 0 1 .051.558 2.772 2.772 0 1 1 -5.535 0 2.969 2.969 0 0 1 1.171-2.394.106.106 0 0 0 .027-.046s.362-1.735-2.3-6.144-5.035-4.7-5.035-4.7-2.322.289-4.984 4.7-2.275 6.144-2.275 6.144l.04.046a2.974 2.974 0 0 1 1.177 2.394 2.77 2.77 0 1 1 -5.53 0 3.1 3.1 0 0 1 .051-.558l-.018-.075a14.09 14.09 0 0 0 -10.89-3.4l6.931 19.807s4.608.94 15.5.94q1.453 0 2.769-.023c7.842-3.244 13.311-10.541 13.311-19.025-.005-.309-.013-.619-.028-.929z" fill="#c4c4c4" opacity=".25" transform="translate(-3639.793 -651.256)"/><path d="m3812.955 675.731a2.783 2.783 0 0 1 -3.014-4.673.106.106 0 0 0 .028-.044s.364-1.648-2.315-5.839-5.066-4.465-5.066-4.465-2.336.275-5.016 4.465-2.289 5.839-2.289 5.839.016.016.041.044a2.785 2.785 0 1 1 -4.324 1.742c-.012-.045-.018-.072-.018-.072a14.747 14.747 0 0 0 -6.489-3.068 15.256 15.256 0 0 0 15.057 14.438 15.052 15.052 0 0 0 13.405-8.367z" fill="#fcfceb" opacity=".25" transform="translate(-3692.465 -651.256)"/><path d="m3936.3 668.195a21.311 21.311 0 0 0 -1.644-3.019c-2.679-4.191-5.066-4.465-5.066-4.465s-2.336.275-5.015 4.465-2.289 5.839-2.289 5.839l.041.044a2.778 2.778 0 0 1 .681 3.867 6.888 6.888 0 0 0 5.594 3.406c4.07-.002 7.404-4.471 7.698-10.137z" fill="#ededdd" opacity=".25" transform="translate(-3819.581 -651.256)"/><path d="m3923.478 675.567c3.094-.492 6.023-5.383 6.161-8.091a58.351 58.351 0 0 0 -.052-6.061 1.447 1.447 0 0 1 0-.7c-.639.179-2.819 1.031-5.015 4.465-2.68 4.19-2.289 5.839-2.289 5.839l.041.044a2.778 2.778 0 0 1 .681 3.867c.151.219.309.432.473.637z" fill="#ffffd9" opacity=".25" transform="translate(-3819.561 -651.256)"/><path d="m3764.994 792.312s-4.706 1.635-15.2 1.635c-10.9 0-15.068-1.551-15.068-1.551l-5.792-18.14c-.19.017-1.394-1.135-1.589-1.109l6.938 20.246s4.612.961 15.511.961c10.49 0 15.615-.961 15.615-.961l6.936-20.246c-.195-.026-1.208.994-1.4.977z" fill="url(#c)" transform="translate(-3639.793 -754.899)"/><path d="m3860.244 789.288a3.761 3.761 0 0 0 1.432-7.238 2.4 2.4 0 0 0 -.03.815l.041.044a2.781 2.781 0 1 1 -4.38 2.275 2.849 2.849 0 0 1 .052-.53c-.011-.045-.017-.072-.017-.072s-.2-.184-.584-.464a3.758 3.758 0 0 0 3.486 5.17z" fill="url(#d)" transform="translate(-3758.828 -763.107)"/><path d="m3924.206 665.175c-2.461 3.848-2.306 5.552-2.271 5.8.344.017.835.048 1.24.105-.03-.468.018-2.194 2.261-5.7a12.421 12.421 0 0 1 3.734-3.966v-.7s-2.285.271-4.964 4.461z" fill="url(#e)" transform="translate(-3819.148 -651.256)"/><path d="m3738.326 775.079a14.666 14.666 0 0 0 -10.956-3.228l1.623.942a14.808 14.808 0 0 1 8.508 3.318c.25-.309.545-.64.842-.96-.011-.045-.017-.072-.017-.072z" fill="#e5e5e3" transform="translate(-3639.813 -753.603)"/><g fill="#fff"><path d="m3942.361 662.927c-.022.024-.019.048-.038.069-.057.063-.1.127-.16.193a.055.055 0 0 0 -.014.022 11.414 11.414 0 0 1 1.981-1.536c.606-.245.2.284-.255.644a28.013 28.013 0 0 0 -3.4 5.32 9.97 9.97 0 0 0 -.712 2.345 15.544 15.544 0 0 1 2.178-4.6c.244-.383.486-.73.724-1.051.2-.272.411-.555.647-.836a8.509 8.509 0 0 1 .678-.766 18.863 18.863 0 0 1 1.629-1.314v-.7s-1.367.16-3.258 2.21z" transform="translate(-3835.595 -651.256)"/><path d="m3889.042 834.553a.994.994 0 0 1 -.656-.2 2.759 2.759 0 0 1 -.977.471 1.261 1.261 0 0 1 .226.228c.171.239-.12.67-1.082.893a3.2 3.2 0 0 1 -1.185-.022 3.755 3.755 0 0 0 5.225-2.941 2 2 0 0 1 -1.551 1.571z" transform="translate(-3785.455 -810.054)"/><path d="m3799.6 795.3a5.572 5.572 0 0 0 -.79 1.03c.008.155.139 1.056.139 1.056a3.512 3.512 0 0 1 -.216-.757c-.069-.419-.647-1.049-1.579-1.57s-3.322-1.513-3.322-1.513a18.914 18.914 0 0 1 2.95 1.127c.979.55 1.589 1.193 2.044 1s-.456-1.4-.456-1.4a6.1 6.1 0 0 1 .981.658c.236.253.331.322.249.369z" transform="translate(-3701.074 -773.709)"/><path d="m3731.337 772.56a8.973 8.973 0 0 1 -2.542-.481c-.5-.258.1-.464 1.012-.481s2.3.132 2.3.132a12.038 12.038 0 0 0 -4.74-.218l1.6 1.03a17.314 17.314 0 0 1 4 .7 7.777 7.777 0 0 0 1.553.53 9.746 9.746 0 0 0 -3.183-1.212z" transform="translate(-3639.813 -753.266)"/></g><path d="m4084.247 789.288a3.761 3.761 0 0 1 -1.432-7.238 2.4 2.4 0 0 1 .03.815l-.041.044a2.785 2.785 0 1 0 4.328 1.745c.012-.045.017-.072.017-.072s.2-.184.584-.464a3.758 3.758 0 0 1 -3.485 5.17z" fill="url(#f)" transform="translate(-3965.486 -763.107)"/><path d="m4019.753 665.175c2.461 3.848 2.384 5.552 2.347 5.8-.345.017-.8.048-1.2.105.03-.468-.15-2.194-2.395-5.7-1.474-2.307-2.694-3.425-3.866-3.966v-.7s2.435.271 5.114 4.461z" fill="url(#g)" transform="translate(-3904.756 -651.256)"/><path d="m4165.494 775.079a14.665 14.665 0 0 1 10.955-3.228l-1.623.942a14.812 14.812 0 0 0 -8.508 3.318c-.25-.309-.543-.64-.842-.96.012-.045.018-.072.018-.072z" fill="#e5e5e3" transform="translate(-4043.894 -753.603)"/><path d="m4082.519 834.553a.993.993 0 0 0 .657-.2 2.77 2.77 0 0 0 .978.471 1.23 1.23 0 0 0 -.226.228c-.171.239.12.67 1.082.893a3.2 3.2 0 0 0 1.184-.022 3.755 3.755 0 0 1 -5.225-2.941 2 2 0 0 0 1.55 1.571z" fill="#fff" transform="translate(-3965.922 -810.054)"/><path d="m4176.182 771.513a12.037 12.037 0 0 0 -4.739.218s1.392-.149 2.3-.132 1.305.223.808.481a12.8 12.8 0 0 1 -2.526.6 16.657 16.657 0 0 0 -3.66 1.385s-.229.113-.333.17c-.977.549-1.862 1.073-2.051.85-.321-.378.466-1.25.466-1.25a6.194 6.194 0 0 0 -.982.657c-.24.249-.334.318-.25.369a5.6 5.6 0 0 1 .792 1.03c-.01.155-.14 1.056-.14 1.056a3.529 3.529 0 0 0 .217-.757c.069-.419.646-1.049 1.578-1.571a33.637 33.637 0 0 1 3.308-1.407 16.514 16.514 0 0 1 3.616-.67z" fill="#fff" transform="translate(-4043.628 -753.266)"/><path d="m3816.969 1001.083-.458.922s4.6.893 15.477.893a101.482 101.482 0 0 0 15.578-.893l.012-.023-.429-.981s-4.7 1.52-15.161 1.52c-10.514 0-14.749-1.348-15.019-1.438z" fill="url(#h)" transform="translate(-3721.982 -963.445)"/><path d="m4211.265 790.97s5.875-16.345 6.133-16.693a10.416 10.416 0 0 1 1.26-1.125l-1.6 1.031z" fill="#e5e5e3" opacity=".48" transform="translate(-4086.103 -753.414)"/><path d="m3734.664 790.97s-5.874-16.345-6.132-16.693a11.409 11.409 0 0 0 -1.184-1.125l1.6 1.031z" fill="#e5e5e3" opacity=".48" transform="translate(-3639.793 -753.414)"/></svg>