<svg height="112.922" viewBox="0 0 87.677 112.922" width="87.677" xmlns="http://www.w3.org/2000/svg"><g transform="translate(-212.17 -272.503)"><path d="m315.513 296.77c-.361-.053-.72-.11-1.078-.167-.679-.107-1.35-.221-2.009-.332a.781.781 0 0 0 -.091-.016l-1.021-.181c-1.109-.2-2.184-.4-3.228-.616-.466-.094-.921-.187-1.373-.285-.081-.016-.164-.037-.245-.053l-.917-.2c-2.264-.5-4.363-1.032-6.315-1.577-.57-.161-1.126-.321-1.671-.483-.234-.067-.463-.137-.69-.208.007.265 0 .536-.01.824v.081.044q-.01.266-.01.522a131.457 131.457 0 0 0 17.436 3.9c.4 2.388 1.011 6.473 1.42 11.486.151 1.842.275 3.808.352 5.86a107.278 107.278 0 0 1 -.352 14.1q.437 1.552 1.065 3.171c.07-.529.137-1.061.2-1.59.037-.324.074-.653.1-.978.036-.365.073-.726.1-1.089.033-.344.061-.686.087-1.031.02-.251.037-.5.057-.746.01-.161.02-.319.03-.476.016-.281.033-.556.05-.834.02-.3.033-.61.047-.91.033-.717.061-1.434.081-2.14.01-.335.017-.666.024-1a135.692 135.692 0 0 0 -2.039-25.076z" fill="#009e61" transform="translate(-22.098 -5.258)"/><path d="m287.558 352.814c-.01.014-.023.03-.036.047a27.364 27.364 0 0 1 -3.315 3.529c-.077.071-.154.141-.228.2l-.114.11c-2.056 2.073-6.218 5.649-10.625 9.433-.392.338-.786.676-1.178 1.011l-2.907 2.5c-.157.134-.312.268-.466.405-.188.161-.372.321-.559.486q-.356.307-.707.613c-1.051.917-2.076 1.818-3.057 2.7-.171.154-.342.3-.509.455-1.745 1.564-3.335 3.038-4.668 4.353l-.583.583c-.064.064-.127.127-.187.191q-.462.472-.864.9c-3.338-3.6-9.6-8.971-15.685-14.2-4.406-3.784-8.569-7.36-10.622-9.433l-.117-.11c-.328-.284-.647-.579-.958-.877a29.831 29.831 0 0 1 -4.638-5.767c-.074-.114-.144-.231-.214-.348a35.9 35.9 0 0 1 -1.856-3.462c-.05-.1-.1-.208-.143-.311s-.1-.221-.154-.335a47.925 47.925 0 0 1 -2.5-7.039c-.114-.418-.224-.84-.328-1.262-.057-.221-.114-.446-.164-.67s-.1-.426-.151-.64c-.107-.458-.2-.921-.3-1.386-.047-.228-.094-.452-.137-.679q-.131-.683-.251-1.369c-.064-.382-.127-.763-.187-1.149-.05-.3-.094-.609-.137-.911-.033-.231-.067-.462-.1-.69s-.06-.459-.09-.69c-.027-.208-.05-.412-.074-.619-.02-.14-.036-.284-.05-.425-.027-.231-.053-.466-.077-.7-.03-.274-.057-.549-.084-.823-.03-.295-.053-.589-.081-.884-.047-.525-.087-1.052-.12-1.573-.027-.392-.053-.784-.074-1.172 0-.054-.007-.111-.01-.168-.017-.318-.033-.633-.047-.947-.007-.1-.01-.2-.013-.3-.013-.345-.027-.687-.04-1.028-.017-.545-.03-1.085-.04-1.624 0-.275-.007-.546-.01-.817-.02-1.724 0-3.419.057-5.06.01-.315.02-.626.033-.938.01-.312.024-.616.041-.925.033-.77.077-1.527.123-2.27q.041-.663.091-1.313c.02-.285.04-.57.064-.851.023-.285.047-.562.07-.837.033-.415.074-.828.11-1.229.024-.268.05-.533.078-.794.053-.523.107-1.035.16-1.531.03-.248.057-.492.084-.729.03-.241.057-.475.084-.709s.057-.463.086-.69c.041-.338.084-.666.128-.987.013-.107.03-.211.044-.319.04-.311.084-.616.127-.911.03-.2.057-.388.083-.576.07-.469.137-.91.2-1.323.027-.164.053-.324.077-.479s.05-.3.074-.449c.013-.074.023-.144.037-.214.036-.208.07-.409.1-.593s.064-.361.094-.522c23.183-3.536 33.73-10.056 37.407-12.922.12.094.251.194.388.3.071.05.141.1.214.157.144.107.3.214.459.328.245.174.505.355.787.539.184.124.378.248.579.378.716.456 1.536.945 2.478 1.46.134.074.268.147.408.221.415.224.851.449 1.31.68.281.14.569.281.864.425.2.1.4.194.616.291q.467.216.964.439.855.387 1.8.773c.345.144.7.288 1.061.429.2.084.409.164.619.245l-2.063.7a52.046 52.046 0 0 1 -10.48-5.586c-4.219 3.027-14.845 9.011-36.178 12.4-.9 5.328-2.819 19.107-1.286 32.8a68.46 68.46 0 0 0 1.905 10.27c1.879 6.872 5.017 13.126 10.063 17.523l.174.164.021.017c2.012 2.036 6.154 5.592 10.537 9.359 5.522 4.742 11.211 9.627 14.757 13.223 3.007-3.05 7.554-7.025 12.232-11.053l.522-.452 2-1.718c4.386-3.764 8.525-7.32 10.541-9.359l.194-.181c.318-.274.626-.559.928-.854a19.04 19.04 0 0 1 3.589-1.855z" fill="#009e61" transform="translate(-1.546 -2.149)"/><g fill="#fff"><path d="m297.39 289.132-.318-1.483-1.5-.218c-29.048-4.162-37.889-13.123-37.962-13.2l-1.6-1.728-1.6 1.728c-.084.09-8.609 8.993-37.966 13.2l-1.5.218-.319 1.483a134.131 134.131 0 0 0 -2.451 26.668c.208 19.546 5.079 33.633 14.489 41.874 2.193 2.206 6.385 5.806 10.823 9.617 6.583 5.656 14.78 12.695 16.729 15.527l1.791 2.608 1.794-2.608c1.949-2.833 10.143-9.871 16.726-15.524 4.437-3.814 8.629-7.414 10.826-9.62a33.8 33.8 0 0 0 6.058-7.045c-.168-.1-.335-.2-.5-.282a.094.094 0 0 0 -.044-.02c-.746-.308-2.3-.616-4.856.338-.01.014-.023.03-.036.047a27.356 27.356 0 0 1 -3.315 3.529c-.077.071-.154.141-.228.2l-.114.11c-2.056 2.073-6.218 5.649-10.625 9.433-.392.338-.786.676-1.178 1.011l-2.907 2.5c-.157.134-.312.268-.466.4-.188.161-.372.322-.559.486q-.356.307-.707.613c-1.051.917-2.076 1.818-3.057 2.7-.171.154-.342.3-.509.455-1.745 1.564-3.335 3.037-4.668 4.353l-.583.583c-.064.064-.127.127-.187.191q-.462.472-.864.9c-3.338-3.6-9.6-8.971-15.685-14.2-4.406-3.784-8.569-7.36-10.622-9.433l-.117-.11c-.328-.285-.647-.579-.958-.877a29.83 29.83 0 0 1 -4.638-5.767c-.074-.114-.144-.231-.214-.348a35.906 35.906 0 0 1 -1.856-3.462c-.05-.1-.1-.208-.143-.311s-.1-.221-.154-.335a47.923 47.923 0 0 1 -2.5-7.039c-.114-.418-.224-.84-.328-1.262-.057-.221-.114-.446-.164-.67s-.1-.426-.151-.64c-.107-.458-.2-.921-.3-1.386-.047-.228-.094-.452-.137-.679q-.131-.683-.251-1.369c-.066-.382-.13-.767-.187-1.149-.05-.3-.094-.609-.137-.91-.033-.231-.067-.462-.1-.69s-.06-.459-.09-.69c-.027-.208-.05-.412-.074-.619-.02-.14-.036-.285-.05-.425-.027-.231-.053-.466-.077-.7-.03-.274-.057-.549-.084-.823-.03-.295-.053-.589-.081-.884-.047-.525-.087-1.052-.12-1.573-.027-.392-.053-.784-.074-1.172 0-.054-.007-.111-.01-.168-.017-.318-.033-.633-.047-.947-.007-.1-.01-.2-.013-.3-.013-.345-.027-.687-.04-1.028-.017-.545-.03-1.085-.04-1.624 0-.275-.007-.546-.01-.817-.02-1.724 0-3.419.057-5.06.01-.315.02-.626.033-.938.01-.312.024-.616.041-.925.033-.77.077-1.527.123-2.27q.041-.663.091-1.313c.02-.285.04-.57.064-.851.023-.285.047-.562.07-.837.033-.415.074-.828.11-1.229.024-.268.05-.533.078-.794.053-.523.107-1.035.16-1.531.027-.248.054-.488.084-.729.027-.241.057-.479.084-.709s.057-.463.086-.69c.041-.338.084-.666.128-.987.013-.107.03-.211.044-.319.04-.311.084-.616.127-.911.027-.194.053-.388.083-.576.067-.469.137-.911.2-1.323.027-.164.053-.324.077-.479s.05-.3.074-.449c.013-.074.023-.144.037-.214.033-.208.07-.409.1-.593s.064-.361.094-.523c23.183-3.536 33.73-10.055 37.407-12.922.12.094.251.194.388.3.071.05.141.1.214.157.144.107.3.214.459.328.245.174.505.355.787.539.184.124.378.248.579.378.716.456 1.536.945 2.478 1.46.134.074.268.147.408.221.415.224.851.449 1.31.68.281.14.569.281.864.425.2.1.4.194.616.291q.467.216.964.439.855.387 1.8.773c.345.144.7.288 1.061.429.2.084.409.164.619.245a.41.41 0 0 0 .057.024c.69-.282 1.39-.519 2.228-.783l.147-.047.663-.211a2.328 2.328 0 0 1 .743-.124 2.352 2.352 0 0 1 2.307 2.126c.013.1.027.211.036.321v.034c.024.261.037.525.04.8.228.071.456.141.69.208.542.164 1.1.325 1.671.483 1.952.545 4.051 1.075 6.315 1.577l.917.2c.081.016.164.037.245.053.452.1.908.191 1.373.285 1.044.211 2.12.419 3.228.616l1.021.181a.784.784 0 0 1 .091.016q.989.166 2.009.332c.358.057.717.114 1.078.167a135.691 135.691 0 0 1 2.04 25.077c-.007.332-.014.663-.024 1-.02.707-.047 1.423-.081 2.14-.013.3-.027.606-.047.911-.017.278-.034.553-.05.834-.01.157-.02.315-.03.476-.02.248-.037.5-.057.746-.027.345-.054.687-.087 1.031-.03.362-.067.724-.1 1.089-.03.325-.067.653-.1.978-.06.529-.127 1.061-.2 1.59.053.144.11.291.171.438.3.774.639 1.554.995 2.324.248.545.519 1.112.86 1.8a14.047 14.047 0 0 0 1.276 2.079 91.021 91.021 0 0 0 1.865-18.226 133.842 133.842 0 0 0 -2.454-26.675z"/><path d="m269.713 370.516a10.888 10.888 0 0 1 -1.579-.432 49.391 49.391 0 0 1 -9.894-5.5c-4.149-2.967-7.631-6.469-9.755-11.194a19.894 19.894 0 0 1 -1.744-6.222 21.6 21.6 0 0 1 1.2-9.222 20.106 20.106 0 0 1 8.1-10.889c.135-.087.328-.258.312-.358-.047-.291-.341-.234-.52-.191a13.52 13.52 0 0 0 -5.618 2.471c-1.447 1.192-3.185 2.086-4.213 3.761a.365.365 0 0 1 -.3.107c-.231-.027-.181-.178-.121-.342a11.326 11.326 0 0 1 1.44-2.247 28.111 28.111 0 0 1 5.84-6.255 20.857 20.857 0 0 1 8.96-4.638c.569-.117 1.2-.7 1.7-.1.4.486-.067 1.055-.258 1.57a19.525 19.525 0 0 0 -1.664 7.433 5.615 5.615 0 0 0 3.71 5.251 17.506 17.506 0 0 0 5.88 1.075 16.418 16.418 0 0 1 3.7.1c1.142.244 2.307.335 3.448.505a17.788 17.788 0 0 1 4.625 1.3c.7.308 1.517.506 1.845 1.343a4.35 4.35 0 0 1 -2.1.117 6.121 6.121 0 0 0 -2.012-.127c-.908.117-1.822.157-2.732.184-.771.024-1.457.328-2.224.368-.225.01-.3.3-.131.529a4.052 4.052 0 0 0 .335.378 19.832 19.832 0 0 1 5.311 8.378 4.408 4.408 0 0 0 1.791 2.361.511.511 0 0 0 .848-.4c.077-1.406-.091-2.813.047-4.222a.723.723 0 0 1 .519-.613c.355-.1.466.214.559.479a7.411 7.411 0 0 1 .248.791c.225.914.456 1.828.643 2.749.148.71-.285 1.732.218 2.09.536.378 1.494-.435 2.129-.295a12.957 12.957 0 0 0 1.427.177 5.876 5.876 0 0 1 1.038.188c.14.04.278.081.419.117a12.239 12.239 0 0 0 4.048.4 2.607 2.607 0 0 0 2.6-2.676 6.728 6.728 0 0 0 -1.011-3.66 1.069 1.069 0 0 1 .123-1.477 1.648 1.648 0 0 0 .057-2.29c-.16-.225-.254-.5-.412-.727q-.478-.7-.931-1.406c-.368-.562-.72-1.132-1.061-1.708-1.118-1.865-2.137-3.787-3.094-5.742a14.638 14.638 0 0 1 -1.8-7.555 3.816 3.816 0 0 0 -.542-2.244 86.188 86.188 0 0 0 -7.424-11.71 10.713 10.713 0 0 0 -5.987-4.088c-.409-.091-.59-.255-.586-.65 0-.509-.007-1.015 0-1.524a1.219 1.219 0 0 0 -.365-1.072c-1.158-.947-1.259-2.28-1.335-3.627a1.849 1.849 0 0 0 -.144-.442c-.137.09-.328.151-.405.278a5.785 5.785 0 0 0 -1.035 4.1 10.033 10.033 0 0 0 .438 2.619c.218.452-.03.565-.425.65a3.442 3.442 0 0 1 -1.641-.2 7.659 7.659 0 0 0 -1.678-.191 32.272 32.272 0 0 0 -3.6.081 85.839 85.839 0 0 0 -11.913 1.922 35.726 35.726 0 0 0 -6.181 1.895 52.627 52.627 0 0 0 -7.036 3.379 37.794 37.794 0 0 0 -5.954 4.524 27.646 27.646 0 0 0 -5.538 7.518 52.511 52.511 0 0 0 -5.414 13.8c-.05.231-.144.878-.191 1.336a68.459 68.459 0 0 1 -1.912-10.283s0 0 0-.007c.415-1.109.506-1.433.724-2.12a66.488 66.488 0 0 1 4.942-11.663 32.952 32.952 0 0 1 10.073-11.489 41.13 41.13 0 0 1 8.224-4.624c1.129-.455 2.29-.827 3.432-1.252.194-.071.452-.114.482-.392.03-.336-.257-.292-.452-.369a11.006 11.006 0 0 0 -3.031-.409c-1.075-.1-2.146-.258-3.227-.3a24.453 24.453 0 0 0 -3.138.111 20.238 20.238 0 0 1 -2.916.217.335.335 0 0 1 -.248-.184.314.314 0 0 1 .185-.4 51.494 51.494 0 0 1 5.749-2.662c1.775-.586 3.546-1.232 5.4-1.654a37.956 37.956 0 0 1 5.763-.77 19.426 19.426 0 0 1 6.744.887 14.808 14.808 0 0 1 7.025 4.136c.07.081.18.188.268.181.2-.013.188-.2.2-.355a4.345 4.345 0 0 1 .482-2.228 8.143 8.143 0 0 1 4.075-3.174c.684-.281 1.393-.516 2.11-.743.274-.086.552-.174.827-.265.372-.12.546.208.576.443.013.1.024.2.034.3a10.547 10.547 0 0 1 .02 1.376v.114a13.014 13.014 0 0 0 .66 4.832c.315.9.355.991 1.216.79 3.978-.93 7.293.506 10.058 3.168a21.262 21.262 0 0 1 3.57 4.828 10.685 10.685 0 0 0 3.955 3.811 4.937 4.937 0 0 0 .623.325 10.286 10.286 0 0 0 .516 1.731 6.283 6.283 0 0 0 -.469.84 4.591 4.591 0 0 1 -3.677-.11 16.206 16.206 0 0 1 -4.326-2.843.3.3 0 0 0 -.439-.03c-.033.034.024.194.077.271 1.5 2.086 2.816 4.286 4.119 6.5.566.961 1.142 1.919 1.7 2.883a1.256 1.256 0 0 1 .2.616 30.771 30.771 0 0 0 2.431 12.644q.482 1.215 1.035 2.414c.282.619.579 1.235.884 1.848a15.654 15.654 0 0 0 4.012 5.079 1.717 1.717 0 0 1 .636 1.982 17.913 17.913 0 0 1 -2.314 6.395 5.559 5.559 0 0 1 -4.725 2.9 6.245 6.245 0 0 0 -4.876-.86 7.992 7.992 0 0 0 -1.155.331c-.385.141-.763.3-1.135.476a16.988 16.988 0 0 0 -1.647.908 9.612 9.612 0 0 1 -1.5-1.025c-1.369-.947-2.15-2.38-3.3-3.5-.194-.191-.288-.486-.479-.676a95.924 95.924 0 0 1 -6.154-7.474 14.348 14.348 0 0 0 -4.678-3.767 5.678 5.678 0 0 0 -6.362.749c-5.97 4.544-5.853 13.284-2.859 19.445a37.119 37.119 0 0 0 3.586 5.6 49 49 0 0 0 4.577 4.948 12.317 12.317 0 0 1 .842 1.462" transform="translate(-2.251 -4.77)"/><path d="m304.7 331.894a2.551 2.551 0 0 1 .588-1.807 2 2 0 0 0 .006-2.177c-.652-1.42-1.394-2.789-2.126-4.165-.118-.222-.158-.446.087-.559a.52.52 0 0 1 .446.132 24.637 24.637 0 0 1 5.617 8.4 27.092 27.092 0 0 1 1.171 4.318 42.113 42.113 0 0 0 2.07 6.5c.181.466.374.928.542 1.4.03.084-.038.2-.061.3a.954.954 0 0 1 -.279-.083 2.935 2.935 0 0 1 -.857-1.23 34.277 34.277 0 0 1 -3.122-8.6 7.726 7.726 0 0 0 -.679-1.7.558.558 0 0 0 -.492-.384c-.279-.017-.613-.081-.766.194-.122.219.1.369.294.51a1.487 1.487 0 0 1 .372.534c.066.126.2.293-.049.4-1.05.478-2.734-.688-2.762-1.983z" transform="translate(-23.723 -13.222)"/></g></g></svg>