<svg height="31" viewBox="0 0 31 31" width="31" xmlns="http://www.w3.org/2000/svg"><circle cx="15.5" cy="15.5" fill="#fff" r="15.5"/><g fill="#005333"><path d="m12.93 4.661a8.265 8.265 0 1 1 -5.848 2.421 8.216 8.216 0 0 1 5.848-2.421m0-1.286a9.555 9.555 0 1 0 9.555 9.555 9.554 9.554 0 0 0 -9.555-9.555z" transform="translate(2.625 2.625)"/><path d="m16.472 11.25c1.723 0 2.908.956 2.908 2.329a2.247 2.247 0 0 1 -1.291 2.04c-.8.464-1.07.8-1.07 1.392v.363h-1.594l-.014-.4a1.913 1.913 0 0 1 1.084-2.021c.776-.464 1.1-.758 1.1-1.328a1.115 1.115 0 0 0 -1.235-.988 1.162 1.162 0 0 0 -1.231 1.13h-1.629c.032-1.479 1.126-2.522 2.972-2.522zm-1.208 7.874a.986.986 0 1 1 .983.946.962.962 0 0 1 -.983-.946z" transform="translate(-.885 -.105)"/></g></svg>