<svg viewBox="0 0 591.23 761.46" xmlns="http://www.w3.org/2000/svg" xmlns:xlink="http://www.w3.org/1999/xlink"><linearGradient id="a" gradientUnits="userSpaceOnUse" x1="222.94" x2="514.76" y1="257.38" y2="445.85"><stop offset="0" stop-color="#37ab36"/><stop offset="1" stop-color="#155b2c"/></linearGradient><linearGradient id="b" x1="270.66" x2="562.49" xlink:href="#a" y1="183.48" y2="371.96"/><path d="m547.85 128.19-7.27-1.13c-4.58-.73-9.1-1.49-13.54-2.24-.21 0-.41-.09-.61-.11l-6.89-1.22c-7.48-1.33-14.72-2.73-21.77-4.16-3.14-.63-6.21-1.26-9.26-1.91l-1.64-.37-6.19-1.35c-15.27-3.39-29.42-7-42.59-10.64-3.84-1.08-7.58-2.16-11.26-3.25-1.58-.45-3.12-.92-4.66-1.4.05 1.79 0 3.62-.06 5.56v.54.29c0 1.2-.06 2.37-.06 3.53 32.33 9.75 71.19 18.94 117.57 26.28 2.73 16.1 6.82 43.65 9.57 77.45 1 12.42 1.86 25.67 2.37 39.51a722.77 722.77 0 0 1 -2.37 95.11q3 10.47 7.18 21.38c.48-3.57.93-7.16 1.34-10.72.24-2.19.49-4.41.7-6.6.24-2.46.49-4.9.7-7.33s.4-4.63.58-7c.14-1.69.25-3.36.39-5 .06-1.09.13-2.15.2-3.21.11-1.9.23-3.75.34-5.62.13-2.06.22-4.11.32-6.15.22-4.83.4-9.66.54-14.42q.09-3.39.16-6.73c1.3-76.63-9.34-144.37-13.79-169.09z" fill="#454749"/><path d="m497.93 527.06-.25.32a184.85 184.85 0 0 1 -22.35 23.8c-.52.47-1 .94-1.54 1.37l-.77.75c-13.86 14-41.93 38.09-71.64 63.61-2.64 2.28-5.31 4.56-7.95 6.82l-19.6 16.89c-1.06.9-2.1 1.8-3.14 2.73-1.26 1.08-2.5 2.17-3.77 3.27l-4.76 4.13c-7.09 6.19-14 12.26-20.62 18.18-1.15 1-2.3 2.06-3.43 3.07-11.77 10.55-22.49 20.48-31.48 29.36l-3.93 3.92q-.65.65-1.26 1.29c-2.08 2.12-4 4.16-5.83 6.1-22.51-24.25-64.71-60.49-105.76-95.76-29.72-25.52-57.78-49.63-71.62-63.61l-.79-.75c-2.22-1.92-4.36-3.9-6.46-5.91a201.08 201.08 0 0 1 -31.28-38.89c-.49-.76-1-1.55-1.44-2.34a243.62 243.62 0 0 1 -12.51-23.35c-.34-.7-.68-1.4-1-2.1s-.7-1.49-1-2.26a323 323 0 0 1 -16.89-47.46c-.77-2.82-1.51-5.67-2.21-8.51-.39-1.49-.77-3-1.11-4.52s-.7-2.87-1-4.31c-.73-3.1-1.38-6.21-2-9.35-.32-1.54-.64-3.05-.93-4.59-.59-3.07-1.15-6.14-1.69-9.23-.43-2.57-.86-5.15-1.27-7.75-.34-2.05-.63-4.1-.92-6.14-.23-1.56-.46-3.11-.66-4.65s-.41-3.09-.61-4.65c-.18-1.4-.34-2.78-.5-4.18-.13-.95-.24-1.92-.33-2.87-.18-1.55-.37-3.13-.52-4.69-.21-1.85-.39-3.7-.57-5.56-.2-2-.36-4-.54-6q-.48-5.33-.81-10.61c-.18-2.64-.36-5.29-.5-7.91 0-.36 0-.74-.07-1.12-.11-2.15-.22-4.27-.31-6.39-.05-.68-.07-1.36-.09-2l-.27-6.93c-.12-3.68-.21-7.31-.28-10.95 0-1.85 0-3.68-.06-5.51-.14-11.63 0-23.05.38-34.12.07-2.12.14-4.22.23-6.32.06-2.1.15-4.16.27-6.23.22-5.2.52-10.3.83-15.31.18-3 .39-5.94.61-8.86.14-1.92.27-3.84.43-5.73.16-1.92.32-3.79.48-5.64.22-2.8.49-5.58.74-8.29.16-1.8.34-3.59.52-5.35.36-3.52.72-7 1.08-10.32.21-1.67.39-3.32.57-4.92.2-1.63.38-3.21.56-4.79s.39-3.12.59-4.65q.41-3.42.86-6.66c.09-.73.2-1.43.29-2.15.27-2.1.57-4.15.86-6.14.2-1.33.38-2.62.56-3.89.48-3.16.93-6.14 1.36-8.91.18-1.11.36-2.2.52-3.23s.34-2.06.5-3c.09-.5.15-1 .24-1.44.25-1.4.48-2.76.68-4s.43-2.44.63-3.52c156.32-23.85 227.45-67.81 252.24-87.14l2.62 2c.48.34.95.7 1.45 1.06 1 .72 2 1.45 3.09 2.21 1.65 1.18 3.41 2.4 5.31 3.64 1.24.83 2.55 1.67 3.9 2.55 4.84 3.07 10.37 6.37 16.71 9.85.91.49 1.81 1 2.76 1.49 2.8 1.51 5.73 3 8.83 4.58 1.89 1 3.84 1.9 5.82 2.87 1.36.65 2.73 1.31 4.16 2 2.1 1 4.26 2 6.5 3q5.76 2.61 12.1 5.22c2.33 1 4.72 1.94 7.16 2.89 1.38.56 2.76 1.1 4.18 1.64l-13.91 4.7c-34.89-14.59-57.47-28.41-70.71-37.91-28.45 20.41-100.09 60.76-243.95 83.59-6.1 35.92-19 128.84-8.67 221.19a460.71 460.71 0 0 0 12.89 69.34c12.67 46.34 33.83 88.52 67.86 118.17l1.17 1.1.13.11c13.58 13.73 41.51 37.71 71.06 63.12 37.24 32 75.6 64.91 99.51 89.16 20.28-20.57 50.94-47.37 82.49-74.53l3.52-3 13.48-11.58c29.58-25.38 57.49-49.36 71.08-63.12l1.31-1.21c2.15-1.86 4.22-3.78 6.26-5.76a128.14 128.14 0 0 1 24.18-12.52z" fill="#454749"/><path d="m574.66 112.13-2.15-10-10.11-1.47c-195.89-28.07-255.5-88.49-256-89l-10.79-11.66-10.77 11.65c-.56.61-58 60.65-256 89l-10.11 1.47-2.15 10c-.73 3.35-17.53 83.08-16.58 179.88 1.4 131.8 34.26 226.79 97.71 282.36 14.79 14.88 43.06 39.15 73 64.85 44.4 38.14 99.67 85.6 112.81 104.7l12.08 17.59 12.11-17.59c13.14-19.1 68.39-66.56 112.78-104.68 29.92-25.72 58.19-50 73-64.87a227.33 227.33 0 0 0 40.85-47.51q-1.7-1-3.39-1.89a.65.65 0 0 0 -.29-.14c-5-2.08-15.53-4.15-32.74 2.28l-.25.32a184.85 184.85 0 0 1 -22.35 23.8c-.52.47-1 .94-1.54 1.37l-.77.75c-13.86 14-41.93 38.09-71.64 63.61-2.64 2.28-5.31 4.56-7.95 6.82l-19.6 16.89c-1.06.9-2.1 1.8-3.14 2.73-1.26 1.08-2.5 2.17-3.77 3.27l-4.76 4.13c-7.09 6.19-14 12.26-20.62 18.18-1.15 1-2.3 2.06-3.43 3.07-11.77 10.55-22.49 20.48-31.48 29.36l-3.93 3.92q-.65.65-1.26 1.29c-2.08 2.12-4 4.16-5.83 6.1-22.51-24.25-64.71-60.49-105.76-95.76-29.72-25.52-57.78-49.63-71.62-63.61l-.79-.75c-2.22-1.92-4.36-3.9-6.46-5.91a201.08 201.08 0 0 1 -31.27-38.93c-.49-.76-1-1.55-1.44-2.34a243.62 243.62 0 0 1 -12.51-23.35c-.34-.7-.68-1.4-1-2.1s-.7-1.49-1-2.26a323 323 0 0 1 -16.89-47.46c-.77-2.82-1.51-5.67-2.21-8.51-.39-1.49-.77-3-1.11-4.52s-.7-2.87-1-4.31c-.73-3.1-1.38-6.21-2-9.35-.32-1.54-.64-3.05-.93-4.59-.59-3.07-1.15-6.14-1.69-9.23-.46-2.57-.88-5.17-1.27-7.75-.34-2.05-.63-4.1-.92-6.14-.23-1.56-.46-3.11-.66-4.65s-.41-3.09-.61-4.65c-.18-1.4-.34-2.78-.5-4.18-.13-.95-.24-1.92-.33-2.87-.18-1.55-.37-3.13-.52-4.69-.21-1.85-.39-3.7-.57-5.56-.2-2-.36-4-.54-6q-.48-5.33-.81-10.61c-.18-2.64-.36-5.29-.5-7.91 0-.36 0-.74-.07-1.12-.11-2.15-.22-4.27-.31-6.39-.05-.68-.07-1.36-.09-2l-.27-6.93c-.12-3.68-.21-7.31-.28-10.95 0-1.85 0-3.68-.06-5.51-.14-11.63 0-23.05.38-34.12.07-2.12.14-4.22.23-6.32.06-2.1.15-4.16.27-6.23.22-5.2.52-10.3.83-15.31.18-3 .39-5.94.61-8.86.14-1.92.27-3.84.43-5.73.16-1.92.32-3.79.48-5.64.22-2.8.49-5.58.74-8.29.16-1.8.34-3.59.52-5.35.36-3.52.72-7 1.08-10.32.18-1.67.37-3.29.57-4.92.18-1.63.38-3.23.56-4.79s.39-3.12.59-4.65q.41-3.42.86-6.66c.09-.73.2-1.43.29-2.15.27-2.1.57-4.15.86-6.14.18-1.31.36-2.62.56-3.89.46-3.16.93-6.14 1.36-8.91.18-1.11.36-2.2.52-3.23s.34-2.06.5-3c.09-.5.15-1 .24-1.44.23-1.4.48-2.76.68-4s.43-2.44.63-3.52c156.32-23.85 227.45-67.81 252.24-87.14l2.62 2c.48.34.95.7 1.45 1.06 1 .72 2 1.45 3.09 2.21 1.65 1.18 3.41 2.4 5.31 3.64 1.24.83 2.55 1.67 3.9 2.55 4.84 3.07 10.37 6.37 16.71 9.85.91.49 1.81 1 2.76 1.49 2.8 1.51 5.73 3 8.83 4.58 1.89 1 3.84 1.9 5.82 2.87 1.36.65 2.73 1.31 4.16 2 2.1 1 4.26 2 6.5 3q5.76 2.61 12.1 5.22c2.33 1 4.72 1.94 7.16 2.89 1.38.56 2.76 1.1 4.18 1.64a2.05 2.05 0 0 0 .38.16c4.65-1.89 9.37-3.5 15-5.28l1-.32 4.47-1.42a15.81 15.81 0 0 1 5-.84c7.95 0 14.5 6 15.56 14.34.09.66.18 1.43.25 2.17v.23c.16 1.76.25 3.54.27 5.39 1.54.48 3.08 1 4.66 1.4 3.65 1.11 7.42 2.19 11.26 3.25 13.17 3.68 27.32 7.25 42.59 10.64l6.19 1.35 1.64.37c3.05.65 6.12 1.28 9.26 1.91 7.05 1.43 14.29 2.83 21.77 4.16l6.89 1.22c.2 0 .4.07.61.11q6.66 1.13 13.54 2.24l7.27 1.13c4.45 24.72 15.09 92.46 13.76 169.1q-.08 3.34-.16 6.73c-.14 4.76-.32 9.59-.54 14.42-.1 2-.19 4.09-.32 6.15-.11 1.87-.23 3.72-.34 5.62-.07 1.06-.14 2.12-.2 3.21-.14 1.67-.25 3.34-.39 5-.18 2.33-.36 4.63-.58 7s-.46 4.87-.7 7.33c-.21 2.19-.46 4.41-.7 6.6-.41 3.56-.86 7.15-1.34 10.72.37 1 .75 2 1.16 3 2 5.22 4.31 10.48 6.7 15.67 1.67 3.68 3.5 7.5 5.8 12.13a95.17 95.17 0 0 0 8.61 14q11.85-54.8 12.57-122.9c1.03-97-15.79-176.73-16.51-180.07z" fill="#fff"/><path d="m372.85 628.76a74 74 0 0 1 -10.65-2.9c-25.27-11-44.19-21-66.72-37.09-28-20-51.46-43.62-65.78-75.48-6-13.44-10.34-27.37-11.76-42-2.08-21.24 1.13-42.06 8.08-62.18 10.46-30.17 27.12-55.86 54.65-73.43.9-.59 2.21-1.74 2.1-2.42-.32-2-2.31-1.58-3.5-1.28-13.64 3.25-27.08 7.72-37.89 16.66-9.76 8-21.48 14.07-28.41 25.36a2.45 2.45 0 0 1 -2 .72c-1.56-.18-1.22-1.2-.81-2.3 2.1-5.78 6.41-10.14 9.71-15.16 10.72-16.32 24.54-30.07 39.38-42.17 17.68-14.46 37.32-26.56 60.42-31.28 3.84-.79 8.08-4.72 11.45-.65 2.71 3.27-.45 7.11-1.74 10.59-6.05 16.19-11.74 32.42-11.22 50.12.45 14.79 9 30.13 25 35.41 12.78 4.2 25.9 7.56 39.65 7.25 8.33-.18 16.93-1 24.95.7 7.7 1.65 15.56 2.26 23.26 3.41a119.82 119.82 0 0 1 31.18 8.74c4.7 2.07 10.23 3.41 12.44 9.05-4.06 1.58-9.84 1.51-14.14.79-4.89-.83-8.49-1.51-13.57-.86-6.11.79-12.28 1.06-18.42 1.25-5.19.15-9.82 2.21-15 2.48-1.52.07-2 2-.88 3.57a25.81 25.81 0 0 0 2.25 2.55c15.85 16.35 29.47 34 35.82 56.49 1.8 6.44 6.34 11.95 12.08 15.92 2.61 1.81 5.53.45 5.71-2.66.52-9.49-.61-19 .31-28.48a4.89 4.89 0 0 1 3.5-4.13c2.4-.65 3.14 1.45 3.78 3.23a50.57 50.57 0 0 1 1.67 5.33c1.51 6.16 3.07 12.33 4.33 18.54 1 4.78-1.92 11.67 1.47 14.09 3.61 2.55 10.07-2.94 14.36-2a86.86 86.86 0 0 0 9.62 1.2 39.59 39.59 0 0 1 7 1.26c1 .27 1.87.54 2.82.79a82.56 82.56 0 0 0 27.3 2.69c10.68-.79 17-7.52 17.5-18 .38-9.06-2.48-17-6.82-24.68-2-3.52-2.57-6.46.84-10 4.49-4.67 4.2-10.14.38-15.44-1.08-1.52-1.72-3.37-2.78-4.9-2.14-3.14-4.24-6.3-6.27-9.49-2.49-3.79-4.86-7.63-7.16-11.51-7.52-12.53-14.34-25.46-20.85-38.68-7.88-16.1-13.45-32.72-12.14-50.94a25.79 25.79 0 0 0 -3.66-15.13c-15.45-27.12-30.42-54.6-50.06-79-10.48-13-23.28-23.78-40.37-27.57-2.76-.61-4-1.72-4-4.38 0-3.43 0-6.84 0-10.27 0-2.71-.14-5.33-2.47-7.23-7.81-6.39-8.49-15.38-9-24.45a12.39 12.39 0 0 0 -1-3c-.92.61-2.21 1-2.73 1.87-5.26 8.49-8.85 18-7 27.66 1.12 5.85.27 12.1 2.95 17.66 1.47 3.05-.2 3.81-2.86 4.38-3.78.81-7.46-.36-11.07-1.36s-7.56-1.1-11.31-1.28a218 218 0 0 0 -24.25.54c-27.12 1.83-53.81 7.36-80.34 13a240.8 240.8 0 0 0 -41.68 12.78c-16.19 6.66-32.16 13.66-47.44 22.78-14.73 8.79-27.73 19.29-40.15 30.51-15.76 14.2-27.23 32.11-37.35 50.69-16 29.49-29.26 60.09-36.51 93.08-.34 1.55-1 5.91-1.29 9a460.71 460.71 0 0 1 -12.76-69.32s0 0 0 0c2.8-7.48 3.41-9.67 4.88-14.3a448.66 448.66 0 0 1 33.33-78.64c16.84-31 39-57.15 67.92-77.47 17.45-12.27 35.63-23.19 55.45-31.19 7.61-3.07 15.45-5.57 23.15-8.44 1.31-.48 3-.77 3.25-2.64.2-2.26-1.74-2-3.05-2.49-6.77-2.55-13.34-2.1-20.43-2.75-7.25-.66-14.48-1.74-21.77-2a166.18 166.18 0 0 0 -21.16.74c-6.61.64-13 1.79-19.66 1.47a2.29 2.29 0 0 1 -1.68-1.24 2.12 2.12 0 0 1 1.25-2.71c12.87-6.12 25.33-13.5 38.77-18 12-4 23.91-8.31 36.39-11.16 12.92-3 25.88-4.24 38.86-5.19 15.38-1.13 30.44 1.72 45.48 6 18.47 5.29 34.34 13.87 47.37 27.89.48.54 1.22 1.26 1.81 1.22 1.35-.09 1.26-1.36 1.35-2.39.46-5.13 0-9.87 3.26-15 7-11 16.75-17 27.48-21.41 4.6-1.89 9.39-3.47 14.22-5 1.85-.59 3.73-1.17 5.58-1.78 2.5-.81 3.68 1.4 3.88 3 .09.68.16 1.38.23 2a70.06 70.06 0 0 1 .13 9.28v.77c-.38 11.13.72 22 4.45 32.58 2.12 6.08 2.39 6.69 8.2 5.33 26.82-6.27 49.17 3.41 67.83 21.36 9.59 9.24 17.29 20.71 24.07 32.56 6.3 11 15.87 19.31 26.66 25.7a33.45 33.45 0 0 0 4.2 2.19 68.85 68.85 0 0 0 3.48 11.67 41.14 41.14 0 0 0 -3.16 5.67 31 31 0 0 1 -24.79-.74 109.62 109.62 0 0 1 -29.23-19.19c-.9-.82-2-1.13-3-.21-.23.23.15 1.31.51 1.83 10.1 14.07 19 28.9 27.78 43.81 3.81 6.48 7.7 12.94 11.47 19.44a8.36 8.36 0 0 1 1.35 4.15c-1.1 30.12 5.63 58.24 16.4 85.26q3.24 8.21 7 16.28c1.9 4.18 3.91 8.34 6 12.47a105.54 105.54 0 0 0 27.06 34.25c4.49 3.71 5.64 7.23 4.29 13.37-3.35 15.11-6.78 29.78-15.63 43-9.73 14.57-19.89 19.1-31.86 19.58-9.26-6.12-20.53-8.47-32.88-5.8a54.08 54.08 0 0 0 -7.79 2.23c-2.59 1-5.15 2-7.65 3.21a114.17 114.17 0 0 0 -11.05 6.11c-2.26-.73-4.65-3.12-10.14-6.91-9.23-6.39-14.5-16.06-22.24-23.58-1.31-1.28-1.94-3.27-3.23-4.56-15.58-15.37-27.64-33.64-41.5-50.4a96.88 96.88 0 0 0 -31.55-25.4c-15-7.36-29.19-5.35-42.9 5.06-40.26 30.64-39.47 89.57-19.28 131.12 6.57 13.55 15.33 25.58 24.18 37.73 10.16 14 19.26 20.92 30.86 33.36 1.76 1.9 5.07 8.92 5.69 9.86" fill="url(#a)"/><path d="m464 311.33c-.78-4.36 1.47-8.42 4-12.19 3.35-5.05 2.47-9.38 0-14.68-4.4-9.58-9.4-18.81-14.34-28.08-.8-1.5-1.07-3 .59-3.77a3.46 3.46 0 0 1 3 .89c16.33 16.38 29.44 35.09 37.88 56.62 3.64 9.28 5.81 19.23 7.89 29.11 3.17 15 8.4 29.53 14 43.86 1.22 3.15 2.52 6.26 3.65 9.43.2.57-.25 1.36-.41 2.05a6.23 6.23 0 0 1 -1.88-.55c-3-2-4.26-5.27-5.78-8.29-9.28-18.5-17-37.62-21.06-58-.85-4.25-2.87-7.72-4.58-11.46a3.73 3.73 0 0 0 -3.32-2.59c-1.88-.12-4.13-.55-5.16 1.3-.82 1.48.66 2.49 2 3.44a10 10 0 0 1 2.52 3.6c.44.85 1.32 2-.34 2.72-7.14 3.19-18.49-4.68-18.66-13.41z" fill="url(#b)"/></svg>