<svg height="10.992" viewBox="0 0 10.992 10.992" width="10.992" xmlns="http://www.w3.org/2000/svg"><path d="m5.5 10.992a5.5 5.5 0 1 1 5.5-5.5 5.5 5.5 0 0 1 -5.5 5.5zm-.85-4.466h.967a1.291 1.291 0 0 1 1.289 1.289v.322h.645v-.322a1.936 1.936 0 0 0 -1.934-1.934h-.967a1.936 1.936 0 0 0 -1.933 1.934v.322h.645v-.322a1.291 1.291 0 0 1 1.288-1.289zm2.112-3.813-.356.537a1.314 1.314 0 0 1 .618.958 1.185 1.185 0 0 1 -.346.962l-.384.384.521.153a1.93 1.93 0 0 1 1.379 1.785h.645a2.556 2.556 0 0 0 -1.416-2.24 1.813 1.813 0 0 0 .242-1.109 1.943 1.943 0 0 0 -.9-1.431zm-1.628.268a1.289 1.289 0 1 0 1.288 1.289 1.29 1.29 0 0 0 -1.289-1.289zm0 1.934a.645.645 0 1 1 .645-.645.645.645 0 0 1 -.646.645z" fill="#fff"/></svg>