<svg height="10.992" viewBox="0 0 10.992 10.992" width="10.992" xmlns="http://www.w3.org/2000/svg"><path d="m5.5 10.992a5.5 5.5 0 1 1 5.5-5.5 5.5 5.5 0 0 1 -5.5 5.5zm-2.648-8.224a.247.247 0 0 0 -.06.008.246.246 0 0 0 -.178.3l1.602 6.324a.244.244 0 0 0 .237.185.264.264 0 0 0 .06-.007.246.246 0 0 0 .178-.3l-1.6-6.324a.245.245 0 0 0 -.239-.186zm.589.093a.14.14 0 0 0 -.115.046.119.119 0 0 0 -.014.106l.288 1.054v.018c.162.6.329 1.215.494 1.823a.29.29 0 0 0 .265.227c.051 0 .1.005.153.005a3.736 3.736 0 0 0 1.8-.63 3.739 3.739 0 0 1 1.8-.631c.051 0 .1 0 .153.006h.034a.139.139 0 0 0 .114-.046.119.119 0 0 0 .015-.107l-.396-1.444-.01-.036-.382-1.411a.263.263 0 0 0 -.265-.228c-.051 0-.1-.006-.153-.006a3.733 3.733 0 0 0 -1.8.631 3.734 3.734 0 0 1 -1.794.628c-.051 0-.1 0-.153-.006h-.032zm1.938 2.71-.11-.4v-.016l-.105-.389a8.8 8.8 0 0 0 .836-.453l.109.405.109.405a8.834 8.834 0 0 1 -.844.448zm-1.135-.61q-.123-.454-.244-.907a2.608 2.608 0 0 0 .914-.2q-.108-.4-.216-.8a8.738 8.738 0 0 0 .85-.454l.108.4.108.4a8.781 8.781 0 0 1 -.851.452l.121.447v.007l.123.454a2.6 2.6 0 0 1 -.914.2zm2.843-.289-.11-.4v-.016l-.105-.389a2.633 2.633 0 0 1 .866-.179l.108.4.109.4a2.625 2.625 0 0 0 -.865.178zm-1.077-.363q-.123-.451-.245-.9a7.515 7.515 0 0 1 .852-.448l.137.5.007.026.1.377a7.841 7.841 0 0 0 -.852.445zm.606-1.352c-.058-.219-.117-.437-.177-.655l-.039-.143a2.643 2.643 0 0 1 .871-.181l.119.439.1.36a2.635 2.635 0 0 0 -.87.181z" fill="#fff"/></svg>